<svg xmlns="http://www.w3.org/2000/svg" width="54.727" height="54.727" viewBox="0 0 54.727 54.727">
  <g id="Group_2943" data-name="Group 2943" transform="translate(474 149)">
    <g id="Group_2912" data-name="Group 2912" transform="translate(-165 -226)">
      <g id="Group_2906" data-name="Group 2906" transform="translate(-87)">
        <g id="Yoga" transform="translate(-58 -115)">
          <circle id="Background" cx="27.364" cy="27.364" r="27.364" transform="translate(-164 192)" fill="#fff"/>
        </g>
      </g>
    </g>
    <g id="bone" transform="translate(-458.859 -135.003)">
      <path id="Path_8102" data-name="Path 8102" d="M16.091,33.19a.367.367,0,0,0-.3.407,1.678,1.678,0,0,1-.074.851,1.737,1.737,0,0,1-1.3,1.221,5.754,5.754,0,0,0-3.479,2.7L7.911,43.666a.375.375,0,0,0,.148.518.409.409,0,0,0,.518-.148l3.035-5.256a5.04,5.04,0,0,1,3.035-2.332,2.6,2.6,0,0,0,1.814-1.74,2.545,2.545,0,0,0,.074-1.184A.382.382,0,0,0,16.091,33.19Z" transform="translate(-4.409 -15.219)" fill="#0071e5"/>
      <path id="Path_8103" data-name="Path 8103" d="M4.576,26.267a1.842,1.842,0,0,1,2.332-2.258,1.917,1.917,0,0,1,1.3,1.666c.037.222.222.481.518.3a1.8,1.8,0,0,1,2.073.3.367.367,0,1,0,.481-.555,2.582,2.582,0,0,0-2.443-.592,2.53,2.53,0,0,0-1.74-1.814,2.69,2.69,0,0,0-2.7.7A2.679,2.679,0,0,0,3.8,26.452a5.12,5.12,0,0,1-.518,3.813L.911,34.41a.375.375,0,0,0,.148.518.4.4,0,0,0,.518-.148L3.983,30.6a5.9,5.9,0,0,0,.592-4.331Z" transform="translate(0 -8.925)" fill="#0071e5"/>
      <path id="Path_8104" data-name="Path 8104" d="M13.011,27.8a.375.375,0,0,0,.148.518.386.386,0,0,0,.518-.148.392.392,0,0,1,.518-.148.381.381,0,0,0,.37-.666,1.339,1.339,0,0,0-1.555.444Z" transform="translate(-7.621 -14.299)" fill="#0071e5"/>
      <path id="Path_8105" data-name="Path 8105" d="M7.54,51.211a.375.375,0,0,0-.518.148l-1.11,1.925a.375.375,0,0,0,.148.518.453.453,0,0,0,.518-.148l1.11-1.925A.458.458,0,0,0,7.54,51.211Z" transform="translate(-3.149 -26.54)" fill="#0071e5"/>
      <path id="Path_8106" data-name="Path 8106" d="M55.316,8.02a.4.4,0,0,0-.518-.111l-3.738,2.184a.375.375,0,0,0-.148.518.409.409,0,0,0,.518.148l3.738-2.184A.472.472,0,0,0,55.316,8.02Z" transform="translate(-31.493 -4.316)" fill="#0071e5"/>
      <path id="Path_8107" data-name="Path 8107" d="M32.078,6.628a5.89,5.89,0,0,0-2.7,3.479,1.784,1.784,0,0,1-1.258,1.3A1.856,1.856,0,0,1,25.9,8.812a.37.37,0,0,0-.3-.518,1.854,1.854,0,0,1-1.147-3.22,1.787,1.787,0,0,1,1.74-.407,5.671,5.671,0,0,0,4.368-.592l4.109-2.369a.375.375,0,0,0,.148-.518.41.41,0,0,0-.518-.148L30.227,3.408a5.12,5.12,0,0,1-3.813.518,2.679,2.679,0,0,0-2.443.592,2.543,2.543,0,0,0-.7,2.7,2.6,2.6,0,0,0,1.814,1.74,2.582,2.582,0,0,0,.592,2.443,2.523,2.523,0,0,0,2.7.7,2.6,2.6,0,0,0,1.74-1.814,5.04,5.04,0,0,1,2.332-3.035.41.41,0,0,0,.148-.518.407.407,0,0,0-.518-.111Z" transform="translate(-14.029 0)" fill="#0071e5"/>
      <path id="Path_8108" data-name="Path 8108" d="M28.048,13.577a.41.41,0,0,0,.148-.518.375.375,0,0,0-.518-.148,1.148,1.148,0,0,0-.407,1.518.425.425,0,0,0,.518.148.41.41,0,0,0,.148-.518A.342.342,0,0,1,28.048,13.577Z" transform="translate(-16.55 -6.422)" fill="#0071e5"/>
      <path id="Path_8109" data-name="Path 8109" d="M10.6,11.684a.352.352,0,0,0,.518,0,.358.358,0,0,0,0-.518L9.529,9.611a.366.366,0,0,0-.518.518Z" transform="translate(-5.065 -5.352)" fill="#0071e5"/>
      <path id="Path_8110" data-name="Path 8110" d="M19.17,8.05a.35.35,0,0,0,.37-.37V5.57a.37.37,0,1,0-.74,0V7.68A.4.4,0,0,0,19.17,8.05Z" transform="translate(-11.3 -2.643)" fill="#0071e5"/>
      <path id="Path_8111" data-name="Path 8111" d="M5.07,20.04H7.18a.37.37,0,1,0,0-.74H5.07a.37.37,0,1,0,0,.74Z" transform="translate(-2.419 -9.984)" fill="#0071e5"/>
      <path id="Path_8112" data-name="Path 8112" d="M37.829,37.811a.366.366,0,0,0-.518.518l1.555,1.555a.387.387,0,0,0,.518,0,.358.358,0,0,0,0-.518Z" transform="translate(-22.889 -19.794)" fill="#0071e5"/>
      <path id="Path_8113" data-name="Path 8113" d="M31.87,40.6a.35.35,0,0,0-.37.37v2.11a.37.37,0,1,0,.74,0V40.97A.35.35,0,0,0,31.87,40.6Z" transform="translate(-19.299 -21.257)" fill="#0071e5"/>
      <path id="Path_8114" data-name="Path 8114" d="M42.48,32.1H40.37a.37.37,0,1,0,0,.74h2.11a.35.35,0,0,0,.37-.37A.371.371,0,0,0,42.48,32.1Z" transform="translate(-24.653 -16.969)" fill="#0071e5"/>
    </g>
  </g>
</svg>
