<svg xmlns="http://www.w3.org/2000/svg" width="30" height="30" viewBox="0 0 30 30">
  <g id="call_green_icon" transform="translate(-105 -316)">
    <rect id="Rectangle" width="30" height="30" rx="15" transform="translate(105 316)" fill="#00a964"/>
    <g id="telephone" transform="translate(113.994 325)">
      <g id="Group_2963" data-name="Group 2963" transform="translate(0.006)">
        <path id="Path_8159" data-name="Path 8159" d="M9.131,52.926a.841.841,0,0,0-1.271,0c-.3.295-.594.589-.887.889a.175.175,0,0,1-.245.045c-.192-.1-.4-.19-.582-.3a9.221,9.221,0,0,1-2.223-2.023,5.267,5.267,0,0,1-.8-1.276.183.183,0,0,1,.045-.235c.3-.287.587-.582.879-.877a.844.844,0,0,0,0-1.3c-.232-.235-.465-.465-.7-.7s-.477-.482-.719-.719a.846.846,0,0,0-1.271,0c-.3.295-.587.6-.892.887a1.447,1.447,0,0,0-.455.977,4.138,4.138,0,0,0,.32,1.781,10.822,10.822,0,0,0,1.921,3.2,11.887,11.887,0,0,0,3.937,3.08,5.693,5.693,0,0,0,2.181.634,1.6,1.6,0,0,0,1.371-.522c.255-.285.542-.545.812-.817a.85.85,0,0,0,0-1.294Q9.848,53.636,9.131,52.926Z" transform="translate(-0.006 -44.988)" fill="#fff"/>
        <path id="Path_8160" data-name="Path 8160" d="M240.554,99.542l.919-.157A4.126,4.126,0,0,0,237.983,96l-.13.924a3.188,3.188,0,0,1,2.7,2.618Z" transform="translate(-231.908 -93.6)" fill="#fff"/>
        <path id="Path_8161" data-name="Path 8161" d="M246.769,1.938A6.777,6.777,0,0,0,242.883,0l-.13.924a5.914,5.914,0,0,1,5,4.85l.919-.157A6.827,6.827,0,0,0,246.769,1.938Z" transform="translate(-236.677)" fill="#fff"/>
      </g>
    </g>
  </g>
</svg>
