<svg xmlns="http://www.w3.org/2000/svg" width="54.727" height="54.727" viewBox="0 0 54.727 54.727">
  <g id="Group_2939" data-name="Group 2939" transform="translate(214.727 51)">
    <g id="Group_2911" data-name="Group 2911" transform="translate(94.273 -128)">
      <g id="Group_2906" data-name="Group 2906" transform="translate(-87)">
        <g id="Yoga" transform="translate(-58 -115)">
          <circle id="Background" cx="27.364" cy="27.364" r="27.364" transform="translate(-164 192)" fill="#fff"/>
        </g>
      </g>
    </g>
    <g id="cancer" transform="translate(-206.726 -39.699)">
      <g id="Group_2936" data-name="Group 2936" transform="translate(3.998 0)">
        <g id="Group_2925" data-name="Group 2925" transform="translate(3.533 7.477)">
          <path id="Path_8091" data-name="Path 8091" d="M73.567,146.135a9.572,9.572,0,0,1-8.819-13.284.442.442,0,0,1,.814.343,8.7,8.7,0,1,0,.964-1.711.442.442,0,1,1-.716-.518,9.568,9.568,0,1,1,7.757,15.169Z" transform="translate(-64 -127)" fill="#d29d5c"/>
        </g>
        <g id="Group_2926" data-name="Group 2926" transform="translate(0 0)">
          <path id="Path_8092" data-name="Path 8092" d="M17.1,30.144a2.258,2.258,0,0,1-1.588-.655,2.373,2.373,0,0,1-.683-1.339,11.184,11.184,0,0,1-3.971-1.644,2.282,2.282,0,0,1-3.681-1.784,2.373,2.373,0,0,1,.464-1.431,11.184,11.184,0,0,1-1.646-3.97,2.282,2.282,0,0,1-1.34-3.864,2.374,2.374,0,0,1,1.339-.683A11.185,11.185,0,0,1,7.637,10.8,2.282,2.282,0,0,1,9.421,7.122a2.356,2.356,0,0,1,1.431.464,11.184,11.184,0,0,1,3.97-1.646,2.3,2.3,0,0,1,2.227-2,2.254,2.254,0,0,1,1.637.655,2.373,2.373,0,0,1,.683,1.339,11.223,11.223,0,0,1,3.794,1.53c.019.012.072.043.192.1l.018-.013a.152.152,0,0,0,.051-.183c-.036-.087-.071-.178-.1-.27a5.329,5.329,0,0,1,8.792-5.545c.105.105.207.216.3.331a.442.442,0,1,1-.675.57c-.081-.1-.166-.188-.254-.276a4.446,4.446,0,0,0-7.335,4.626c.027.076.056.152.086.224a1.035,1.035,0,0,1-.34,1.232l-.06.047a.733.733,0,0,1-.782.093,3.763,3.763,0,0,1-.366-.194,10.348,10.348,0,0,0-3.812-1.469.441.441,0,0,1-.367-.435V6.281a1.479,1.479,0,0,0-.443-1.05,1.391,1.391,0,0,0-1-.4,1.412,1.412,0,0,0-1.382,1.413V6.31a.442.442,0,0,1-.367.435A10.33,10.33,0,0,0,11.075,8.5a.442.442,0,0,1-.567-.049l-.021-.021A1.479,1.479,0,0,0,9.43,8.005a1.381,1.381,0,0,0-.992.422A1.413,1.413,0,0,0,8.46,10.4l.049.049a.442.442,0,0,1,.048.567A10.33,10.33,0,0,0,6.8,15.265a.442.442,0,0,1-.435.367H6.335a1.479,1.479,0,0,0-1.05.443,1.381,1.381,0,0,0-.4,1,1.412,1.412,0,0,0,1.413,1.382h.069a.442.442,0,0,1,.435.367,10.331,10.331,0,0,0,1.758,4.244.442.442,0,0,1-.048.567l-.021.021a1.479,1.479,0,0,0-.429,1.056,1.381,1.381,0,0,0,.422.992,1.413,1.413,0,0,0,1.977-.021l.049-.049a.442.442,0,0,1,.567-.048,10.331,10.331,0,0,0,4.244,1.758.441.441,0,0,1,.367.435v.029a1.479,1.479,0,0,0,.444,1.05,1.385,1.385,0,0,0,1,.4,1.412,1.412,0,0,0,1.382-1.413v-.069a.442.442,0,0,1,.367-.435,10.331,10.331,0,0,0,4.244-1.758.441.441,0,0,1,.567.048l.021.021a1.476,1.476,0,0,0,1.057.429,1.381,1.381,0,0,0,.992-.422,1.413,1.413,0,0,0-.021-1.977l-.049-.049a.441.441,0,0,1-.049-.567A10.331,10.331,0,0,0,27.4,18.824a.441.441,0,0,1,.435-.367h.029a1.479,1.479,0,0,0,1.05-.443,1.381,1.381,0,0,0,.4-1A1.412,1.412,0,0,0,27.9,15.631h-.069a.442.442,0,0,1-.435-.367A10.327,10.327,0,0,0,25.759,11.2a.694.694,0,0,1-.066-.128.736.736,0,0,1,.125-.752,1.41,1.41,0,0,0,.15-.215,1.034,1.034,0,0,1,1.174-.493,4.449,4.449,0,0,0,5.479-5.494.442.442,0,1,1,.85-.24,5.331,5.331,0,0,1-6.562,6.586.153.153,0,0,0-.173.076,2.287,2.287,0,0,1-.177.267A11.188,11.188,0,0,1,28.2,14.768a2.282,2.282,0,0,1,1.34,3.864,2.373,2.373,0,0,1-1.339.683,11.183,11.183,0,0,1-1.644,3.971,2.282,2.282,0,0,1-1.784,3.681h-.024a2.374,2.374,0,0,1-1.406-.464,11.184,11.184,0,0,1-3.97,1.646,2.3,2.3,0,0,1-2.228,2H17.1Z" transform="translate(-3.998 0)" fill="#d29d5c"/>
        </g>
        <g id="Group_2927" data-name="Group 2927" transform="translate(13.954 16.132)">
          <path id="Path_8093" data-name="Path 8093" d="M244.091,280.182a3.091,3.091,0,1,1,3.091-3.091A3.095,3.095,0,0,1,244.091,280.182Zm0-5.3a2.208,2.208,0,1,0,2.208,2.208A2.21,2.21,0,0,0,244.091,274.883Z" transform="translate(-241 -274)" fill="#d29d5c"/>
        </g>
        <g id="Group_2928" data-name="Group 2928" transform="translate(9.361 11.481)">
          <path id="Path_8094" data-name="Path 8094" d="M164.766,198.533a1.766,1.766,0,1,1,1.766-1.766A1.768,1.768,0,0,1,164.766,198.533Zm0-2.649a.883.883,0,1,0,.883.883A.884.884,0,0,0,164.766,195.883Z" transform="translate(-163 -195)" fill="#d29d5c"/>
        </g>
        <g id="Group_2929" data-name="Group 2929" transform="translate(10.715 17.133)">
          <path id="Path_8095" data-name="Path 8095" d="M186.589,292.178a.589.589,0,1,1,.589-.589A.589.589,0,0,1,186.589,292.178Z" transform="translate(-186 -291)" fill="#d29d5c"/>
        </g>
        <g id="Group_2930" data-name="Group 2930" transform="translate(16.014 12.423)">
          <path id="Path_8096" data-name="Path 8096" d="M276.589,212.178a.589.589,0,1,1,.589-.589A.589.589,0,0,1,276.589,212.178Z" transform="translate(-276 -211)" fill="#d29d5c"/>
        </g>
        <g id="Group_2931" data-name="Group 2931" transform="translate(16.014 18.31)">
          <path id="Path_8097" data-name="Path 8097" d="M276.589,312.178a.589.589,0,1,1,.589-.589A.589.589,0,0,1,276.589,312.178Z" transform="translate(-276 -311)" fill="#d29d5c"/>
        </g>
        <g id="Group_2932" data-name="Group 2932" transform="translate(5.593 15.72)">
          <path id="Path_8098" data-name="Path 8098" d="M100.325,269.649a1.325,1.325,0,1,1,1.325-1.325A1.326,1.326,0,0,1,100.325,269.649Zm0-1.766a.442.442,0,1,0,.442.442A.442.442,0,0,0,100.325,267.883Z" transform="translate(-99 -267)" fill="#d29d5c"/>
        </g>
        <g id="Group_2933" data-name="Group 2933" transform="translate(8.596 20.135)">
          <path id="Path_8099" data-name="Path 8099" d="M151.913,345.827a1.913,1.913,0,1,1,1.913-1.913A1.916,1.916,0,0,1,151.913,345.827Zm0-2.944a1.03,1.03,0,1,0,1.03,1.03A1.032,1.032,0,0,0,151.913,342.883Z" transform="translate(-150 -342)" fill="#d29d5c"/>
        </g>
        <g id="Group_2934" data-name="Group 2934" transform="translate(22.108 2.384)">
          <path id="Path_8100" data-name="Path 8100" d="M380.825,43.149a1.325,1.325,0,1,1,1.325-1.325A1.326,1.326,0,0,1,380.825,43.149Zm0-1.766a.442.442,0,1,0,.442.442A.442.442,0,0,0,380.825,41.383Z" transform="translate(-379.5 -40.5)" fill="#d29d5c"/>
        </g>
        <g id="Group_2935" data-name="Group 2935" transform="translate(23.285 5.917)">
          <path id="Path_8101" data-name="Path 8101" d="M400.825,103.149a1.325,1.325,0,1,1,1.325-1.325A1.326,1.326,0,0,1,400.825,103.149Zm0-1.766a.442.442,0,1,0,.442.442A.442.442,0,0,0,400.825,101.383Z" transform="translate(-399.5 -100.5)" fill="#d29d5c"/>
        </g>
      </g>
    </g>
  </g>
</svg>
