<?xml version="1.0" standalone="no"?>
<!DOCTYPE svg PUBLIC "-//W3C//DTD SVG 20010904//EN"
 "http://www.w3.org/TR/2001/REC-SVG-20010904/DTD/svg10.dtd">
<svg version="1.0" xmlns="http://www.w3.org/2000/svg"
 width="680.000000pt" height="340.000000pt" viewBox="0 0 680.000000 340.000000"
 preserveAspectRatio="xMidYMid meet">

<g transform="translate(0.000000,340.000000) scale(0.100000,-0.100000)"
fill="#000000" stroke="none">
<path d="M1472 3336 c1 -35 1 -64 -2 -64 -18 1 -23 -4 -10 -12 8 -5 12 -11 9
-15 -3 -3 -18 4 -32 16 -15 11 -27 16 -27 12 0 -5 14 -19 30 -31 25 -19 30
-30 30 -62 0 -40 30 -86 46 -72 4 4 4 2 1 -5 -4 -6 -1 -13 5 -16 7 -3 3 -4 -9
-4 -12 1 -20 3 -18 5 6 7 -22 32 -36 32 -9 0 -8 -4 1 -15 18 -22 -3 -18 -28 5
-12 12 -22 16 -22 11 0 -5 13 -19 28 -30 27 -19 29 -25 36 -118 6 -87 5 -99
-11 -111 -10 -7 -24 -10 -33 -7 -8 3 0 -7 18 -22 18 -16 32 -35 32 -43 0 -20
67 -63 76 -49 3 6 3 156 -1 335 l-8 324 -39 0 -40 0 4 -64z m52 -95 c-2 -3
-12 3 -22 13 -16 17 -16 18 5 5 12 -7 20 -15 17 -18z m-8 -393 c15 -19 16 -20
2 -9 -10 7 -18 10 -18 7 0 -4 -5 -4 -10 -1 -6 4 -8 11 -5 16 8 12 9 12 31 -13z
m-41 -8 c3 -5 2 -10 -4 -10 -5 0 -13 5 -16 10 -3 6 -2 10 4 10 5 0 13 -4 16
-10z"/>
<path d="M4420 3343 c-61 -162 -41 -281 58 -344 42 -27 54 -30 107 -27 80 5
141 37 229 119 l71 67 72 -51 c55 -38 70 -53 62 -63 -8 -10 -5 -12 11 -11 26
2 24 35 -5 51 -11 6 -28 20 -37 30 -10 10 -18 17 -18 14 0 -4 -14 7 -31 23
-17 16 -36 26 -42 22 -6 -3 -7 -1 -3 5 4 7 1 12 -6 12 -7 0 -31 14 -52 30 -21
16 -42 28 -45 27 -11 -5 -50 42 -40 48 5 4 9 1 9 -5 0 -6 4 -9 9 -6 5 3 15 -1
22 -10 7 -8 30 -24 51 -35 21 -11 38 -24 38 -30 0 -6 5 -7 10 -4 6 3 13 -1 16
-9 3 -9 10 -14 14 -11 5 3 18 -4 28 -16 14 -15 22 -17 27 -8 4 6 2 15 -6 20
-50 28 -50 30 -19 95 17 34 33 76 36 93 l7 31 -276 0 -276 0 -21 -57z m285 7
c-4 -7 5 -9 27 -5 31 5 32 4 14 -10 -10 -8 -23 -12 -29 -8 -6 3 -7 1 -3 -5 4
-7 2 -20 -3 -29 -9 -16 -10 -15 -11 7 0 19 -2 22 -10 10 -5 -8 -12 -11 -16 -8
-7 7 21 58 32 58 3 0 2 -5 -1 -10z"/>
<path d="M5260 3342 c0 -33 -5 -64 -12 -71 -11 -11 -9 -12 7 -3 16 8 26 6 45
-9 l25 -20 -28 13 c-22 9 -30 9 -36 0 -6 -9 -14 -7 -34 8 -15 12 -27 17 -27
11 0 -5 14 -19 30 -31 26 -19 30 -27 30 -71 0 -37 4 -49 15 -49 8 0 15 -5 15
-10 0 -7 -6 -7 -19 0 -29 15 -39 12 -17 -5 11 -8 15 -15 9 -15 -6 0 -22 9 -37
21 -38 30 -32 11 8 -26 28 -26 33 -36 30 -65 -2 -18 -5 -35 -7 -36 -7 -8 -146
103 -142 114 2 6 -2 12 -9 12 -19 0 -9 -39 15 -63 11 -10 19 -14 19 -10 0 4 4
3 8 -2 9 -15 72 -58 72 -51 0 3 8 -2 19 -11 49 -47 79 -69 91 -65 7 3 10 0 6
-6 -5 -9 16 -24 37 -26 5 -1 15 -9 22 -20 8 -10 19 -15 24 -11 6 3 14 0 17 -9
3 -8 21 -22 40 -31 19 -9 34 -20 34 -26 0 -6 5 -7 10 -4 6 3 10 1 10 -4 0 -6
6 -11 14 -11 8 0 17 -4 20 -9 9 -13 -4 -42 -16 -35 -5 3 -4 13 4 22 12 15 11
16 -4 3 -10 -7 -18 -9 -18 -3 0 5 -16 17 -36 27 -20 9 -33 19 -30 22 2 3 -16
16 -42 30 -26 13 -55 33 -64 44 -10 12 -23 17 -29 13 -7 -4 -10 -3 -7 2 3 5
-30 32 -73 59 -43 28 -78 57 -79 65 0 11 -2 12 -8 2 -6 -9 -14 -6 -32 13 -28
30 -40 32 -33 7 3 -12 -4 -25 -21 -36 -14 -9 -26 -14 -26 -11 0 3 -6 0 -14 -7
-10 -9 -11 -15 -3 -20 6 -4 14 -4 17 1 3 4 19 17 36 28 l30 22 65 -45 c35 -25
75 -58 90 -73 14 -15 32 -30 40 -33 12 -5 12 -8 1 -19 -11 -12 -13 -12 -10 0
2 7 -3 16 -11 19 -8 2 -11 0 -8 -5 10 -16 -26 -12 -46 5 -9 8 -20 13 -23 10
-3 -3 9 -16 25 -28 17 -12 31 -29 31 -38 0 -18 64 -65 74 -55 3 4 6 26 6 50 0
23 2 43 5 43 2 0 78 -51 167 -113 90 -62 281 -196 425 -296 l263 -183 26 21
c15 11 31 18 38 15 6 -3 0 4 -14 15 -31 25 -34 25 -51 4 -12 -15 -12 -16 4
-10 11 4 17 2 17 -8 0 -8 -4 -15 -9 -15 -14 0 -32 26 -23 35 4 5 -1 5 -10 2
-11 -4 -27 5 -47 25 -17 18 -34 29 -37 25 -4 -4 -14 2 -22 14 -8 11 -20 18
-29 15 -8 -3 -11 -2 -8 3 3 5 -3 12 -14 16 -10 3 -31 17 -45 32 -14 14 -26 20
-26 14 0 -7 -5 -9 -11 -5 -8 4 -7 9 2 15 11 7 9 9 -6 10 -11 1 -24 1 -28 0 -5
-1 -6 3 -2 9 3 5 -1 13 -9 16 -9 3 -14 10 -11 14 2 4 -7 8 -21 8 -15 0 -32 9
-40 21 -9 12 -19 19 -24 16 -9 -6 -35 23 -28 31 7 7 58 -17 58 -28 0 -4 7 -8
15 -8 8 0 15 -5 15 -11 0 -5 4 -8 8 -5 5 3 33 -15 62 -39 30 -24 56 -43 58
-40 3 3 28 -15 57 -42 7 -7 16 -9 20 -5 5 4 5 1 1 -5 -4 -7 -2 -13 4 -13 6 0
37 -18 67 -40 31 -22 60 -37 65 -34 5 4 6 10 1 14 -9 9 -251 178 -370 258
-213 145 -468 322 -479 334 -15 15 -22 116 -23 336 l-1 152 -40 0 -40 0 0 -58z
m352 -632 c7 -11 18 -20 25 -20 7 0 16 -6 20 -12 4 -7 21 -20 37 -28 36 -18
45 -39 17 -37 -11 1 -18 3 -16 5 5 5 -39 42 -50 42 -10 0 -75 54 -75 63 0 15
30 6 42 -13z m143 -100 c-3 -5 1 -10 9 -10 18 0 21 -16 6 -25 -5 -3 -10 -1
-10 5 0 6 -4 9 -9 6 -5 -4 -8 2 -6 11 5 24 4 23 11 23 3 0 2 -4 -1 -10z m370
-280 c3 -5 1 -10 -4 -10 -6 0 -11 5 -11 10 0 6 2 10 4 10 3 0 8 -4 11 -10z"/>
<path d="M1832 3318 c-21 -21 -13 -32 51 -73 34 -22 75 -53 91 -70 29 -29 29
-29 22 -5 -4 14 -9 36 -12 50 -3 13 -6 25 -7 26 -6 4 -114 71 -123 77 -6 3
-16 1 -22 -5z m30 -22 c3 3 23 -6 43 -21 21 -14 42 -25 47 -25 5 0 6 -4 3 -10
-3 -5 -1 -10 4 -10 6 0 11 -5 11 -10 0 -7 -7 -7 -20 0 -11 6 -18 15 -15 20 3
6 -1 7 -9 4 -9 -3 -16 -1 -16 5 0 6 -6 11 -12 11 -7 0 -24 10 -38 23 -14 12
-21 19 -15 15 7 -4 14 -5 17 -2z"/>
<path d="M5622 3318 c-21 -21 -13 -33 59 -78 38 -24 79 -55 89 -69 21 -28 26
-17 10 23 -7 18 -14 24 -26 19 -12 -4 -15 -2 -12 8 3 8 11 13 17 12 23 -6 10
7 -46 45 -80 53 -78 53 -91 40z m43 -24 c14 -9 25 -24 25 -32 0 -12 -4 -11
-16 6 -8 12 -20 20 -25 17 -5 -4 -9 -1 -9 5 0 6 -4 8 -10 5 -5 -3 -10 -1 -10
4 0 16 17 13 45 -5z m79 -55 c-3 -5 -14 -5 -25 1 -26 14 -24 18 6 12 14 -2 22
-8 19 -13z"/>
<path d="M498 3184 c-8 -7 35 -51 45 -47 4 3 10 -3 13 -11 3 -9 11 -13 17 -9
5 3 7 1 4 -4 -4 -6 4 -14 18 -17 14 -4 23 -11 20 -16 -3 -5 1 -7 9 -4 16 6 40
-28 28 -41 -4 -5 -1 -5 6 -1 7 4 10 13 6 19 -3 7 1 4 9 -5 8 -10 20 -18 26
-18 7 0 9 -4 6 -10 -3 -6 1 -7 9 -4 11 4 16 0 16 -15 0 -22 -14 -28 -25 -11
-4 6 -12 7 -18 4 -7 -4 -9 -4 -5 1 4 4 -12 20 -37 36 -24 15 -53 37 -64 48
-12 12 -28 21 -37 21 -13 0 -14 3 -5 14 9 10 7 13 -6 13 -36 0 -43 3 -43 21 0
14 -2 15 -10 2 -5 -8 -10 -18 -10 -22 0 -3 54 -46 119 -94 l120 -87 -26 -50
c-56 -112 -71 -242 -34 -303 78 -128 227 -118 384 27 l67 61 32 -23 c91 -63
157 -117 151 -123 -3 -3 3 -6 15 -6 15 0 20 5 16 15 -4 8 -10 15 -16 15 -5 0
-6 5 -2 12 4 6 3 8 -3 5 -6 -4 -23 4 -39 18 -15 13 -31 23 -35 22 -4 -1 -7 1
-8 6 -2 15 -43 48 -61 50 -10 1 -16 5 -14 9 3 4 0 8 -6 8 -12 0 -11 0 -83 60
-27 22 -56 40 -65 40 -13 0 -14 2 -3 13 11 10 14 9 18 -1 3 -6 9 -10 14 -6 5
3 9 0 9 -6 0 -6 5 -8 12 -4 6 4 8 3 5 -3 -4 -6 4 -14 18 -17 14 -4 23 -11 20
-16 -3 -6 0 -10 7 -10 7 0 24 -12 37 -25 13 -14 26 -23 29 -21 8 9 73 -47 68
-59 -4 -13 29 -14 41 -1 5 4 1 6 -7 4 -8 -2 -14 2 -13 9 1 6 -20 28 -47 47
-28 20 -50 41 -50 47 0 7 9 26 19 43 58 94 78 244 42 314 -38 73 -146 112
-223 81 -52 -20 -129 -72 -175 -117 l-43 -42 -118 85 c-115 82 -132 91 -144
79z m456 -326 c-5 -8 -1 -9 10 -5 14 6 13 1 -6 -22 -22 -29 -39 -39 -37 -23 3
19 -2 25 -11 12 -5 -8 -10 -10 -10 -4 0 18 41 65 51 58 5 -3 6 -10 3 -16z"/>
<path d="M2085 3139 c-4 -6 -5 -13 -2 -16 7 -7 27 6 27 18 0 12 -17 12 -25 -2z"/>
<path d="M5875 3139 c-4 -6 -5 -13 -2 -16 7 -7 27 6 27 18 0 12 -17 12 -25 -2z"/>
<path d="M5137 3109 c4 -13 8 -18 11 -10 2 7 -1 18 -6 23 -8 8 -9 4 -5 -13z"/>
<path d="M5051 2927 c-1 -4 6 -21 14 -36 8 -16 12 -31 9 -34 -4 -4 33 -76 66
-127 29 -45 40 -72 45 -110 5 -42 5 -42 -17 -28 -21 14 -105 160 -105 183 0 5
-1 24 -2 40 l-3 30 -8 -28 c-7 -22 -2 -43 21 -95 17 -37 36 -94 44 -127 7 -33
13 -52 14 -42 1 9 6 17 12 17 5 0 7 -6 4 -12 -4 -7 0 -5 8 5 12 14 16 15 26 4
6 -8 9 -17 6 -20 -3 -4 -2 -5 2 -2 3 3 13 -1 21 -8 13 -10 14 -9 8 1 -4 7 -12
45 -17 83 -9 71 -27 119 -60 154 -10 12 -34 52 -53 90 -19 39 -35 66 -35 62z"/>
<path d="M1930 2890 c-9 -17 -2 -25 70 -72 44 -29 80 -59 80 -65 0 -7 4 -13 9
-13 14 0 0 41 -16 47 -10 4 -11 9 -2 19 7 8 10 16 8 17 -2 2 -32 22 -67 45
-34 23 -65 42 -67 42 -2 0 -9 -9 -15 -20z m62 -21 c16 -8 18 -13 8 -19 -8 -5
-19 -3 -27 5 -25 25 -15 32 19 14z m69 -49 c6 0 8 -4 5 -9 -8 -12 -43 -2 -58
17 -10 12 -10 14 0 8 7 -4 12 -2 12 4 0 7 7 5 16 -4 8 -9 20 -16 25 -16z"/>
<path d="M5720 2895 c-16 -19 -13 -23 74 -80 42 -27 76 -56 76 -62 0 -7 4 -13
9 -13 5 0 7 9 4 20 -3 11 -10 20 -15 20 -5 0 -6 5 -2 12 4 6 3 9 -2 5 -12 -7
-50 20 -41 29 4 4 13 1 22 -6 9 -7 18 -10 22 -6 3 3 4 7 2 9 -2 1 -29 19 -59
38 -77 51 -76 50 -90 34z m62 -31 c21 -15 35 -31 32 -36 -6 -9 -27 3 -55 34
-9 10 -19 15 -23 11 -3 -3 -6 -1 -6 5 0 18 10 15 52 -14z"/>
<path d="M5256 2861 c-4 -5 -2 -12 3 -15 5 -4 12 -2 15 3 4 5 2 12 -3 15 -5 4
-12 2 -15 -3z"/>
<path d="M4961 2844 c0 -11 3 -14 6 -6 3 7 2 16 -1 19 -3 4 -6 -2 -5 -13z"/>
<path d="M4951 2734 c0 -17 6 -55 15 -85 9 -30 18 -66 19 -81 2 -16 10 -39 19
-53 9 -13 16 -38 16 -55 0 -20 4 -29 11 -25 6 4 8 14 5 22 -3 8 -1 11 4 8 16
-10 11 11 -6 25 -8 8 -20 23 -25 34 -13 28 47 -39 77 -86 13 -21 27 -38 29
-38 9 0 -11 32 -55 91 -41 54 -66 118 -77 197 -3 23 -9 42 -14 42 -4 0 -10 8
-12 18 -3 9 -5 3 -6 -14z"/>
<path d="M2181 2726 c-8 -10 -9 -16 -1 -21 5 -3 13 1 16 10 9 22 -1 29 -15 11z"/>
<path d="M5971 2726 c-8 -10 -9 -16 -1 -21 5 -3 13 1 16 10 9 22 -1 29 -15 11z"/>
<path d="M5041 2650 c18 -33 33 -59 35 -57 6 5 -51 117 -59 117 -5 0 6 -27 24
-60z"/>
<path d="M1300 2670 c0 -5 5 -10 11 -10 5 0 7 5 4 10 -3 6 -8 10 -11 10 -2 0
-4 -4 -4 -10z"/>
<path d="M3381 2644 c-24 -31 -27 -57 -7 -73 11 -10 15 -9 18 3 2 11 29 -2
105 -50 108 -67 127 -74 137 -48 9 24 -5 37 -109 101 -52 31 -96 65 -98 75 -7
25 -22 23 -46 -8z m24 -14 c-3 -5 3 -10 13 -10 11 0 25 -7 32 -14 6 -8 31 -24
54 -35 23 -12 52 -30 63 -40 11 -11 24 -17 29 -13 4 4 4 1 0 -5 -4 -8 -1 -13
8 -13 17 0 22 -15 7 -24 -5 -3 -12 1 -15 9 -3 9 -17 20 -31 25 -14 5 -25 14
-25 19 0 6 -8 8 -17 5 -14 -4 -15 -3 -5 4 11 7 11 10 -2 15 -9 4 -16 1 -16 -6
0 -7 -3 -8 -8 -2 -12 17 -80 65 -91 65 -12 0 -15 13 -4 23 10 10 15 8 8 -3z"/>
<path d="M1380 2631 c0 -5 5 -13 10 -16 6 -3 10 -2 10 4 0 5 -4 13 -10 16 -5
3 -10 2 -10 -4z"/>
<path d="M1410 2580 c0 -11 4 -20 9 -20 5 0 7 9 4 20 -3 11 -7 20 -9 20 -2 0
-4 -9 -4 -20z"/>
<path d="M1367 2573 c-16 -15 -6 -43 18 -49 14 -3 22 -11 18 -17 -4 -6 0 -8
10 -4 19 7 23 -8 6 -19 -7 -4 -16 1 -21 10 -5 9 -13 14 -19 11 -5 -4 -9 -1 -9
4 0 6 -4 11 -10 11 -5 0 -10 -9 -10 -21 0 -11 4 -18 8 -15 8 4 56 -29 183
-125 19 -14 96 -69 172 -123 75 -54 137 -101 137 -106 0 -17 -50 -17 -65 1
-33 35 -116 63 -185 62 -36 -1 -77 -6 -91 -11 -21 -8 -37 -5 -81 16 -50 24
-55 30 -51 54 4 18 -7 50 -31 99 -20 39 -36 81 -36 93 0 12 -9 27 -20 34 -18
11 -20 10 -20 -8 0 -11 5 -20 10 -20 6 0 10 -15 9 -32 -1 -18 7 -53 18 -78 11
-25 18 -55 17 -68 -3 -14 0 -21 6 -17 5 3 10 -1 10 -9 0 -9 -4 -16 -9 -16 -5
0 -16 -2 -23 -5 -17 -7 -38 53 -38 109 0 22 -4 35 -10 31 -5 -3 -10 2 -10 11
0 10 -3 14 -7 11 -3 -4 2 -45 12 -92 l18 -85 33 0 c31 0 122 -29 152 -48 10
-7 6 -17 -17 -41 -17 -18 -31 -39 -31 -47 0 -30 -53 -8 -102 42 -34 33 -44 34
-39 2 2 -12 -17 -10 -24 2 -4 6 -11 8 -16 5 -5 -4 -9 -2 -9 4 0 16 22 25 30
11 5 -8 9 -7 14 6 4 11 -1 24 -14 36 -11 10 -23 37 -26 59 -4 21 -11 42 -17
46 -7 4 -7 -7 -2 -33 12 -61 11 -107 -2 -111 -23 -8 -35 49 -30 137 3 57 2 78
-5 67 -15 -27 -18 -170 -5 -197 7 -13 28 -29 47 -36 20 -7 27 -13 16 -13 -15
-1 -10 -10 25 -45 23 -25 46 -51 50 -58 13 -24 -98 -140 -161 -168 -30 -13
-66 -36 -80 -51 -24 -25 -125 -74 -200 -97 -19 -6 -98 -18 -174 -27 -156 -18
-225 -38 -335 -98 -100 -54 -130 -77 -188 -144 -36 -43 -41 -52 -20 -38 15 10
32 26 38 36 5 11 15 19 22 19 8 0 8 -3 -1 -9 -11 -6 -10 -10 4 -15 10 -4 24 0
35 10 10 9 22 14 26 11 5 -3 8 10 8 29 -1 30 2 35 29 43 17 5 25 10 17 10 -26
2 50 50 123 78 42 16 92 27 121 28 48 0 49 0 60 -38 6 -21 14 -34 19 -30 5 4
5 -3 1 -17 -4 -14 -4 -22 0 -18 5 5 15 -1 22 -12 11 -16 12 -24 4 -34 -13 -15
-4 -49 10 -40 5 3 9 0 9 -5 0 -6 5 -11 11 -11 5 0 8 4 5 9 -3 5 0 11 8 14 8 3
16 -2 19 -14 3 -10 2 -19 -2 -19 -4 0 -16 -8 -27 -17 -20 -15 -20 -19 -8 -61
18 -59 18 -68 -3 -75 -90 -30 -154 -57 -138 -57 32 -1 -29 -30 -84 -41 l-46
-8 52 3 c29 2 53 2 53 1 0 0 -30 -23 -66 -50 -52 -38 -68 -45 -75 -34 -5 8 -9
19 -9 26 0 6 -3 18 -6 26 -4 11 2 17 23 20 26 4 25 4 -7 6 -30 2 -32 4 -15 12
17 8 17 9 -5 4 -14 -3 -43 -7 -65 -10 -37 -5 -38 -4 -12 6 15 6 27 15 27 20 0
5 -15 3 -33 -5 -69 -29 -142 -49 -174 -48 -18 1 -33 -2 -33 -6 1 -17 17 -30
47 -37 29 -6 34 -4 43 19 5 14 17 27 27 28 10 0 23 2 30 2 6 1 15 4 19 8 12
13 58 -3 86 -30 50 -46 47 -58 -28 -128 -77 -72 -73 -72 -118 7 -20 34 -22 41
-25 59 -2 15 -28 12 -34 -3 -3 -7 1 -24 9 -38 16 -30 18 -42 3 -33 -18 11 43
-90 64 -105 10 -7 31 -30 46 -51 33 -45 276 -262 319 -284 63 -32 115 -16 221
68 39 31 72 56 73 56 2 0 5 -39 7 -86 2 -81 15 -143 27 -132 2 3 0 18 -6 34
-6 16 -9 44 -5 62 5 28 9 31 21 22 11 -10 17 -6 29 23 18 43 19 73 2 37 -30
-63 -54 -6 -44 105 3 35 19 95 34 134 l27 71 11 -37 c10 -36 10 -36 12 23 1
35 15 98 33 153 17 52 29 95 27 98 -5 4 -70 -138 -87 -190 -6 -21 -14 -36 -16
-34 -3 2 8 42 23 88 14 46 26 90 24 98 -1 7 2 10 8 7 5 -4 11 3 13 15 2 16 17
26 65 42 l61 20 54 -23 c65 -27 80 -39 74 -56 -3 -7 -1 -16 3 -18 5 -3 7 -48
5 -100 -3 -77 -8 -105 -31 -153 -15 -32 -26 -65 -26 -73 1 -8 -3 -17 -8 -21
-5 -3 -11 -16 -14 -28 -2 -13 -8 -28 -13 -35 -26 -34 -64 -109 -49 -97 14 11
17 11 17 0 0 -11 2 -11 9 1 6 8 8 17 5 21 -2 4 9 27 25 51 29 44 91 170 91
186 0 5 9 39 21 75 l21 67 344 267 c190 148 349 269 353 271 5 2 15 -14 22
-35 16 -49 117 -149 190 -187 l54 -28 -34 35 c-18 20 -39 33 -45 31 -18 -7
-144 117 -153 151 -9 35 -10 42 -12 53 0 5 -10 19 -20 31 -14 16 -26 21 -40
16 -28 -9 -81 -54 -81 -68 0 -7 5 -4 11 6 5 9 17 17 26 17 14 0 14 -3 -2 -20
-10 -11 -26 -18 -34 -15 -9 3 -48 -7 -86 -21 -53 -19 -85 -24 -132 -22 -34 1
-65 -1 -69 -5 -4 -4 -11 -7 -17 -7 -5 0 18 30 50 68 32 37 51 62 43 55 -9 -7
-36 -16 -60 -20 l-45 -7 34 -6 c33 -5 34 -6 17 -23 -10 -9 -22 -15 -27 -12 -5
4 -9 1 -9 -6 0 -7 -11 -10 -28 -7 -25 3 -28 1 -24 -18 2 -12 -3 -27 -12 -35
-9 -8 -30 -27 -46 -44 -26 -26 -32 -28 -49 -18 -17 11 -19 10 -15 -1 3 -8 1
-17 -5 -20 -6 -4 -21 17 -35 47 -14 32 -37 62 -54 73 -60 38 -142 105 -143
117 -3 25 3 42 19 55 15 11 13 11 -8 1 -15 -8 -25 -8 -27 -2 -2 6 -10 19 -18
29 -13 18 -14 18 -9 -6 5 -20 3 -22 -5 -10 -6 8 -11 18 -11 22 0 16 64 50 100
54 33 3 38 1 34 -14 -5 -14 -4 -15 5 -2 7 10 6 19 -5 31 -13 14 -12 19 7 42
11 15 28 27 38 27 13 0 18 8 18 31 0 39 24 59 70 59 31 0 33 2 23 21 -7 11
-18 18 -25 15 -9 -3 -12 0 -9 8 3 7 11 13 19 13 8 0 11 -5 8 -11 -4 -6 1 -4
11 4 34 27 104 30 123 4 10 -14 15 -15 28 -4 12 10 13 16 4 27 -15 17 -13 18
36 30 22 6 49 14 60 18 15 5 12 0 -10 -22 -18 -17 -29 -36 -27 -47 3 -12 0
-16 -8 -11 -23 14 -120 -41 -120 -68 0 -6 11 2 25 17 13 14 33 26 44 26 27 0
83 -49 77 -67 -4 -10 -1 -11 14 -3 15 8 21 6 30 -10 6 -11 9 -24 6 -29 -3 -4
2 -17 10 -27 9 -10 13 -14 10 -7 -4 6 -2 14 3 17 12 8 53 -42 71 -83 12 -30
11 -34 -9 -54 -19 -19 -24 -20 -34 -7 -7 8 -17 16 -22 16 -6 1 -20 5 -32 9
-15 4 -23 2 -23 -5 0 -6 4 -9 9 -6 5 3 21 -4 35 -15 l27 -21 -23 -26 c-23 -25
-8 -22 23 4 27 24 130 54 182 54 36 0 63 -7 95 -26 l45 -27 -25 34 c-50 67
-46 74 12 25 l25 -21 -19 23 c-24 28 -17 28 44 -3 64 -32 80 -32 48 3 -20 21
-78 132 -78 148 0 2 8 0 18 -5 9 -5 30 -15 46 -22 15 -7 41 -32 57 -55 37 -54
85 -161 64 -144 -13 11 -14 10 -8 -6 6 -17 5 -18 -13 -5 -10 7 8 -12 41 -42
33 -30 63 -53 67 -51 4 3 5 -1 2 -9 -3 -8 2 -19 9 -26 13 -10 12 -17 -4 -48
-11 -21 -19 -55 -19 -77 l0 -39 -22 19 -22 19 22 -36 c27 -45 27 -48 0 -43
-13 3 3 -9 35 -26 65 -35 118 -38 123 -7 3 21 -12 23 -20 2 -7 -18 -40 -20
-53 -3 -14 17 -8 46 15 77 31 43 37 55 22 46 -9 -6 -10 -2 -5 16 7 23 7 24 -9
4 -15 -20 -15 -20 -16 5 -1 24 -1 24 -15 -5 l-13 -30 -1 28 c-1 15 6 42 15 59
9 16 11 27 6 24 -6 -3 -13 2 -16 11 -4 10 -4 14 0 10 9 -9 34 25 27 36 -3 5
-9 3 -13 -4 -5 -7 -6 14 -4 45 4 64 -4 86 -48 133 -25 26 -29 37 -24 60 13 55
16 84 7 78 -9 -5 -143 90 -149 107 -2 4 -8 6 -13 2 -5 -3 -12 2 -15 10 -3 9
-12 16 -18 16 -7 0 -23 11 -35 24 -13 14 -36 30 -52 36 -16 7 -27 16 -24 20 5
8 -32 23 -48 21 -5 -1 -6 3 -3 8 6 9 -22 26 -37 22 -5 -1 -6 3 -2 9 3 5 -16
23 -44 40 -27 17 -52 37 -55 45 -3 9 -12 12 -22 8 -13 -5 -15 -3 -9 7 6 10 4
12 -9 7 -10 -4 -15 -3 -11 3 3 6 2 10 -4 10 -5 0 -23 11 -39 25 -16 13 -32 22
-36 18 -3 -3 -6 -1 -6 6 0 7 -5 9 -10 6 -6 -4 -10 -3 -9 2 3 19 -2 34 -10 29
-5 -3 -14 1 -21 9 -7 8 -17 12 -23 8 -5 -3 -7 -1 -4 4 6 10 -27 27 -45 24 -4
0 -4 7 -1 16 5 12 3 14 -7 8 -8 -5 -18 -2 -26 9 -7 10 -16 18 -21 18 -19 1
-45 27 -38 39 5 8 4 10 -3 5 -15 -9 -54 12 -47 25 10 14 25 11 25 -7 0 -8 5
-12 10 -9 6 4 26 -7 46 -24 19 -17 38 -31 42 -31 4 0 22 -14 41 -30 18 -17 37
-27 43 -24 6 4 8 2 5 -3 -4 -6 7 -16 23 -23 16 -7 28 -16 25 -20 -3 -4 5 -10
18 -14 12 -3 40 -21 61 -41 22 -19 44 -35 49 -35 11 0 37 -26 32 -32 -2 -2 16
-15 40 -28 25 -14 45 -28 45 -33 0 -4 4 -6 9 -2 5 3 16 -3 23 -13 7 -11 29
-29 48 -41 19 -11 31 -21 25 -22 -5 0 10 -8 35 -18 25 -10 45 -24 45 -30 0 -7
16 -22 36 -34 91 -55 129 -84 122 -92 -5 -4 -2 -5 5 -1 19 11 74 -38 59 -53
-8 -8 -8 -11 1 -11 7 0 15 7 18 15 4 9 15 13 29 11 13 -3 29 2 36 10 6 8 8 14
4 14 -4 0 4 9 19 21 15 11 32 19 39 16 7 -3 59 -39 117 -80 58 -42 128 -92
157 -113 l52 -37 -31 -38 c-17 -22 -36 -39 -41 -39 -5 0 -56 34 -113 76 -95
68 -124 81 -124 53 0 -6 5 -7 12 -3 6 4 8 3 4 -4 -3 -6 -2 -13 4 -17 5 -3 10
-2 10 4 0 6 11 -1 25 -14 13 -14 31 -25 40 -25 9 0 13 -4 10 -10 -3 -5 -2 -10
3 -10 5 0 19 -9 32 -20 13 -11 29 -20 37 -20 8 0 12 -4 9 -9 -3 -5 3 -11 14
-14 14 -3 18 -10 14 -22 -6 -15 -8 -14 -25 2 -40 39 -170 129 -182 125 -5 -1
-6 2 -2 8 3 5 -1 10 -10 10 -10 0 -15 5 -12 14 3 8 -1 13 -11 13 -26 0 -62 14
-62 24 0 5 -7 9 -15 9 -8 0 -15 5 -15 10 0 6 -4 10 -10 10 -5 0 -10 -7 -10
-15 0 -8 5 -15 11 -15 9 0 99 -59 148 -96 1 -1 -4 -13 -13 -26 -19 -26 -21
-42 -4 -32 7 5 8 3 3 -6 -5 -8 -8 -51 -6 -95 1 -53 -3 -98 -13 -126 -19 -54
-20 -69 -3 -69 16 0 37 41 37 70 0 11 9 24 20 30 11 6 47 33 80 61 33 27 60
47 60 44 0 -3 -13 -29 -29 -58 -64 -113 -96 -253 -70 -309 16 -36 70 -68 115
-68 62 0 196 90 269 181 l30 37 65 -46 c36 -25 129 -92 206 -149 78 -57 149
-103 157 -103 17 0 57 46 57 66 0 7 -84 73 -186 146 -103 73 -198 142 -211
153 l-24 20 40 75 c81 152 99 282 44 327 -42 34 -82 44 -125 32 -41 -11 -142
-73 -166 -102 -11 -12 -16 -11 -40 10 -15 13 -92 70 -171 126 l-144 102 -2 42
c-2 51 -11 62 -102 130 -69 51 -73 56 -73 94 0 51 -30 109 -68 132 -30 17
-131 25 -104 8 7 -4 24 -6 36 -4 35 7 81 -22 101 -63 14 -31 15 -43 6 -74 -6
-21 -11 -51 -11 -67 0 -16 -3 -33 -7 -37 -4 -3 -8 -12 -9 -19 -5 -31 -25 -67
-42 -76 -24 -13 -87 2 -115 26 -12 11 -52 41 -89 67 -38 26 -68 49 -68 51 0 2
9 2 21 0 19 -4 20 -3 6 18 -17 26 -6 57 18 57 8 0 15 7 15 16 0 14 -3 14 -17
3 -16 -11 -16 -11 -5 1 7 8 18 15 25 16 7 0 22 2 35 2 13 1 20 7 17 12 -3 6
-1 10 5 10 6 0 8 5 4 11 -5 8 6 9 35 4 40 -7 41 -6 33 16 -5 13 -15 25 -23 28
-12 4 -12 2 0 -13 8 -9 12 -19 9 -21 -7 -8 -38 5 -38 16 0 13 -116 -67 -139
-97 -12 -15 -21 -35 -21 -45 0 -11 -2 -19 -5 -19 -6 0 -319 225 -371 267 -23
18 -44 33 -48 33 -16 0 -134 99 -123 103 7 3 8 6 1 6 -6 1 -14 -2 -17 -6z
m-32 -243 c3 -5 1 -10 -4 -10 -6 0 -11 5 -11 10 0 6 2 10 4 10 3 0 8 -4 11
-10z m712 -46 c-3 -3 -12 -4 -19 -1 -8 3 -5 6 6 6 11 1 17 -2 13 -5z m-145
-186 c30 -20 30 -22 10 -29 -23 -9 -72 -3 -85 10 -5 5 2 16 14 25 29 20 25 20
61 -6z m-535 -63 c-28 -20 -81 -6 -99 25 -16 29 -16 29 10 32 16 2 43 -7 65
-21 33 -21 36 -27 24 -36z m380 49 c-3 -3 -12 -4 -19 -1 -8 3 -5 6 6 6 11 1
17 -2 13 -5z m276 -77 c18 -15 25 -26 17 -25 -11 2 -14 -5 -12 -25 3 -26 2
-28 -17 -18 -17 9 -19 16 -11 36 10 25 4 30 -28 26 -8 -1 -22 7 -31 18 -10 12
-23 21 -30 21 -18 0 -13 18 7 23 20 4 61 -17 105 -56z m-563 39 c0 -2 -20 -16
-45 -30 -45 -27 -135 -127 -135 -151 0 -8 -10 -15 -22 -17 -13 -2 -23 -10 -23
-18 0 -8 -4 -15 -10 -15 -15 0 -121 -81 -138 -105 -14 -20 -14 -20 -31 -1 -14
16 -15 23 -5 38 11 19 63 47 97 52 5 0 59 51 121 112 62 61 127 117 145 125
32 14 46 17 46 10z m425 -164 c-3 -3 -11 0 -18 7 -9 10 -8 11 6 5 10 -3 15 -9
12 -12z m-20 -20 c20 -11 20 -11 -1 -12 -12 0 -27 6 -33 14 -15 18 3 17 34 -2z
m-29 -22 c5 1 10 -4 13 -11 2 -6 0 -10 -5 -7 -5 3 -17 8 -27 11 -10 4 -15 12
-11 18 5 8 9 8 14 -1 4 -6 11 -11 16 -10z m-52 -1 c13 -6 27 -21 30 -32 4 -18
7 -19 23 -6 17 13 17 13 3 -5 -14 -17 -15 -17 -37 8 -12 15 -33 31 -45 36 -13
5 -18 9 -11 9 7 1 23 -4 37 -10z m113 -45 c-3 -3 -12 -4 -19 -1 -8 3 -5 6 6 6
11 1 17 -2 13 -5z m-38 -63 c11 -7 10 -11 -6 -19 -20 -11 -43 0 -43 20 0 11
31 10 49 -1z m1145 -98 c-47 -89 -69 -121 -62 -93 4 18 99 180 105 180 2 0
-17 -39 -43 -87z m-1883 30 c13 -16 12 -17 -3 -4 -10 7 -18 15 -18 17 0 8 8 3
21 -13z m62 -86 c-5 -8 -8 -7 -11 1 -2 7 -10 12 -17 12 -14 0 -27 25 -18 34
10 10 53 -36 46 -47z m1678 -120 c-16 -16 -26 0 -10 19 9 11 15 12 17 4 2 -6
-1 -17 -7 -23z m-344 -44 c-3 -10 -5 -2 -5 17 0 19 2 27 5 18 2 -10 2 -26 0
-35z m387 22 c-5 -11 -2 -13 10 -9 11 4 16 1 16 -11 0 -9 5 -13 10 -10 6 3 10
1 10 -6 0 -7 3 -10 6 -6 3 3 18 -5 32 -19 15 -13 41 -31 59 -39 32 -16 46 -29
19 -19 -8 3 -17 0 -22 -7 -4 -8 -3 -10 4 -5 6 4 21 2 33 -5 17 -9 20 -8 14 3
-4 7 2 2 13 -11 11 -13 24 -21 31 -17 6 4 11 3 11 -2 0 -15 64 -74 68 -63 2 6
15 -1 28 -14 14 -14 31 -25 38 -25 8 0 16 -9 19 -20 3 -11 9 -20 14 -19 19 3
34 -2 29 -10 -3 -5 6 -12 20 -15 20 -5 23 -10 14 -21 -9 -11 -6 -13 14 -11 14
2 27 -3 30 -11 4 -8 11 -11 18 -7 9 5 9 3 -1 -9 -7 -9 -18 -17 -23 -17 -13 0
-69 47 -68 57 1 4 -4 9 -11 12 -8 2 -9 -1 -3 -10 7 -12 5 -12 -9 0 -14 11 -15
16 -5 29 11 13 10 14 -9 4 -14 -8 -24 -9 -28 -2 -4 6 -11 7 -17 4 -7 -4 -8 -2
-4 4 4 7 2 12 -4 12 -6 0 -8 5 -4 13 5 7 0 6 -11 -3 -10 -8 -16 -10 -12 -3 5
7 -1 17 -13 23 -11 6 -17 16 -14 22 5 8 1 9 -10 5 -10 -4 -19 -1 -22 8 -6 14
-41 31 -56 27 -5 -1 -7 2 -5 7 1 5 -2 9 -7 9 -5 0 -13 7 -18 16 -5 9 -14 13
-20 10 -7 -4 -8 -2 -4 4 4 7 1 12 -6 12 -8 0 -29 14 -48 30 -45 39 -48 41 -92
69 -36 21 -46 39 -31 54 12 13 22 7 17 -8z m-529 -107 c-3 -13 -7 -28 -7 -35
-2 -25 -18 -1 -18 28 0 20 5 29 16 29 12 0 15 -6 9 -22z m-2185 -378 c4 -3 13
-16 20 -30 l12 -25 -19 21 c-22 22 -43 58 -43 71 0 4 6 -1 12 -12 6 -11 14
-22 18 -25z m50 -91 c0 -6 -4 -7 -10 -4 -5 3 -10 11 -10 16 0 6 5 7 10 4 6 -3
10 -11 10 -16z"/>
<path d="M1853 2103 c-21 -8 -15 -22 7 -16 11 3 20 9 20 14 0 10 -8 10 -27 2z"/>
<path d="M1280 2076 c0 -2 7 -9 15 -16 13 -11 14 -10 9 4 -5 14 -24 23 -24 12z"/>
<path d="M3220 1190 c0 -5 5 -10 11 -10 5 0 7 5 4 10 -3 6 -8 10 -11 10 -2 0
-4 -4 -4 -10z"/>
<path d="M3392 1054 c10 -10 20 -16 22 -13 3 3 -5 11 -17 18 -21 13 -21 12 -5
-5z"/>
<path d="M5081 2575 c1 -19 18 -51 18 -35 0 8 -4 22 -9 30 -5 8 -9 11 -9 5z"/>
<path d="M2907 2553 c-3 -5 -8 -44 -11 -88 -4 -44 -9 -92 -12 -106 -4 -20 1
-28 22 -38 15 -6 24 -14 21 -18 -4 -3 -13 -1 -20 5 -14 12 -77 12 -77 1 0 -4
11 -14 24 -22 21 -14 23 -22 19 -58 -5 -34 -2 -45 13 -57 18 -13 17 -14 -8 -8
-16 4 -28 2 -28 -3 0 -11 29 -23 41 -16 5 4 6 -1 3 -9 -8 -21 -11 -20 -51 10
-18 14 -33 21 -33 16 0 -5 11 -17 25 -26 26 -17 26 -18 19 -104 -4 -48 -8 -94
-8 -102 -1 -8 -5 -18 -10 -21 -12 -9 2 -29 20 -29 8 0 12 -5 9 -10 -4 -6 -18
-2 -36 11 -17 12 -33 19 -35 16 -3 -3 6 -13 21 -23 14 -9 24 -23 21 -30 -5
-14 58 -64 81 -64 7 0 13 9 13 20 0 11 16 164 35 341 38 346 40 383 26 374 -6
-3 -25 4 -43 16 -18 12 -25 18 -15 15 11 -3 16 -2 12 4 -7 12 -32 13 -38 3z
m-14 -257 c10 -8 14 -17 9 -20 -5 -3 -17 3 -27 14 -21 23 -9 26 18 6z m17
-424 c-21 -7 -23 -6 -26 10 -2 14 1 15 17 5 11 -7 15 -13 9 -15z"/>
<path d="M6709 2553 c-13 -3 -18 -23 -23 -91 -4 -48 -9 -96 -12 -107 -3 -15 5
-25 36 -43 24 -13 38 -28 34 -34 -5 -7 -11 -6 -19 5 -13 18 -30 24 -20 7 11
-18 -26 -11 -56 11 -16 11 -29 16 -29 11 0 -5 11 -17 24 -25 21 -14 23 -22 19
-64 -6 -58 -24 -83 -47 -63 -19 15 -22 0 -4 -18 9 -9 6 -17 -12 -37 -13 -14
-27 -25 -31 -25 -4 0 -31 18 -60 40 -30 22 -63 40 -75 40 -12 0 -24 5 -26 12
-3 7 -9 8 -18 3 -10 -6 -8 -10 9 -17 13 -5 19 -12 15 -19 -4 -8 -3 -9 5 -5 12
7 72 -28 115 -66 23 -21 13 -42 -14 -26 -10 7 -17 15 -14 19 3 6 -15 17 -36
21 -3 1 -11 7 -17 14 -23 22 -116 79 -125 76 -6 -1 -12 7 -15 18 -3 11 -12 20
-20 20 -9 0 -13 6 -9 15 5 13 2 14 -16 4 -22 -12 -22 -12 8 -35 16 -13 80 -58
142 -100 61 -42 112 -77 112 -78 0 -1 -17 -36 -38 -77 -21 -41 -41 -81 -44
-89 -4 -12 -21 -4 -78 35 -40 28 -75 58 -78 69 -4 16 -7 15 -21 -11 -21 -39
-74 -103 -85 -103 -16 0 -86 -62 -80 -72 3 -5 13 -7 21 -3 13 5 14 3 3 -10 -7
-9 -22 -21 -33 -27 -17 -9 -19 -8 -14 6 4 10 1 16 -8 17 -8 1 -21 2 -27 3 -7
0 -13 14 -13 30 0 26 5 30 69 52 41 14 80 34 95 51 14 15 17 20 6 10 -12 -9
-38 -24 -60 -33 -35 -14 -38 -14 -26 0 11 14 11 16 -4 16 -14 0 -15 3 -5 15
23 28 -5 15 -44 -20 -44 -40 -73 -48 -56 -15 6 12 21 20 35 20 16 0 25 6 25
15 0 8 13 23 28 33 17 9 28 24 26 34 -1 11 3 15 14 11 10 -4 13 -2 8 5 -3 6
-1 14 5 18 7 4 9 3 6 -3 -10 -16 20 -24 32 -9 7 9 7 16 0 23 -8 8 -5 15 10 25
12 8 18 18 14 21 -3 4 1 7 10 7 30 0 18 15 -48 63 -62 45 -65 49 -65 88 0 88
-58 149 -141 149 -32 0 -40 -3 -29 -10 8 -5 25 -7 36 -4 31 8 81 -21 100 -58
14 -26 15 -40 6 -82 -6 -28 -14 -66 -16 -84 -3 -18 -12 -40 -20 -48 -9 -8 -13
-21 -10 -29 6 -15 -40 -50 -54 -41 -6 3 -43 -2 -83 -12 -67 -17 -74 -21 -79
-46 l-5 -27 -34 35 c-19 20 -30 36 -23 36 6 0 16 -8 22 -17 10 -17 11 -16 8 2
-2 10 -12 22 -24 25 -21 5 -74 44 -74 53 0 3 10 8 23 10 12 2 5 3 -17 2 -21
-2 -50 1 -65 7 l-26 10 24 19 c29 24 42 24 35 2 -4 -11 -3 -14 3 -7 4 6 23 15
41 19 18 3 32 13 32 21 0 8 7 14 15 14 18 0 20 21 3 38 -13 13 5 42 26 42 6 0
17 9 24 21 9 14 20 19 33 16 13 -4 19 -1 16 6 -3 7 -10 11 -16 10 -6 -2 -11 2
-11 8 0 6 9 8 20 4 15 -5 18 -3 14 9 -5 13 -2 14 25 5 17 -6 35 -9 40 -7 15 6
-7 48 -26 48 -17 -1 -17 -1 0 -11 18 -11 23 -29 7 -29 -5 0 -15 6 -22 13 -23
26 -168 -88 -168 -132 0 -30 -83 -79 -120 -72 -8 1 -24 11 -35 21 -11 9 -36
25 -57 35 -20 9 -47 33 -61 54 -30 44 -74 88 -107 104 -15 8 -39 43 -65 96
-26 53 -48 85 -59 87 -14 2 -13 -3 8 -31 14 -18 48 -80 76 -136 42 -86 57
-106 51 -66 0 4 4 7 10 7 6 0 9 -6 6 -14 -3 -8 1 -17 9 -20 10 -4 13 -2 8 7
-4 6 7 -1 24 -17 18 -16 31 -31 29 -32 -1 -2 -18 -5 -37 -7 -39 -4 -108 -36
-157 -73 -28 -21 -33 -22 -46 -9 -8 8 -17 12 -20 9 -11 -11 -48 51 -44 74 5
24 -32 90 -47 84 -10 -4 -26 18 -26 37 0 11 3 11 15 1 8 -7 1 10 -17 37 -18
28 -34 49 -35 49 -1 -1 4 -32 12 -68 19 -91 47 -143 119 -216 56 -59 60 -65
42 -75 -35 -22 -123 -102 -167 -153 -31 -36 -62 -60 -107 -79 -35 -16 -69 -37
-77 -47 -14 -21 -103 -66 -180 -91 -27 -9 -113 -23 -189 -32 -156 -18 -226
-38 -332 -96 -101 -56 -143 -88 -194 -150 -43 -52 -29 -52 19 0 22 25 23 25
18 4 -3 -15 -1 -20 9 -16 8 3 11 9 8 14 -3 5 1 7 8 4 19 -7 52 21 42 36 -5 8
-2 11 7 7 10 -4 15 1 16 14 1 11 7 26 14 34 10 12 14 12 22 2 6 -10 8 -9 4 4
-3 9 1 19 9 22 23 9 26 7 18 -6 -5 -9 -3 -9 9 1 9 7 14 18 11 23 -4 6 1 8 12
4 11 -3 26 -1 34 5 12 8 10 9 -7 4 -13 -3 -23 -4 -23 -1 0 9 112 46 157 52 26
3 50 7 55 10 4 3 13 -15 20 -40 6 -25 16 -42 21 -39 5 3 6 -4 2 -17 -4 -14 -3
-20 2 -17 6 4 16 -5 23 -18 10 -19 10 -27 1 -39 -9 -11 -9 -16 0 -22 8 -5 10
-3 5 7 -4 8 -1 6 8 -5 14 -18 16 -17 40 10 14 16 26 23 26 17 0 -7 -5 -13 -11
-13 -6 0 -8 -9 -4 -21 6 -16 0 -27 -21 -44 -28 -22 -28 -24 -16 -69 6 -25 12
-50 12 -55 0 -10 -66 -36 -174 -68 -73 -21 -70 -24 10 -8 24 4 22 2 -11 -14
-42 -20 -198 -40 -160 -21 18 9 18 10 -5 6 -50 -9 -104 -15 -85 -9 11 3 29 12
40 20 l20 15 -20 -5 c-11 -3 -36 -11 -55 -18 -32 -11 -53 -17 -65 -19 -3 -1
-21 -8 -40 -16 -26 -11 -41 -12 -55 -4 -15 8 -20 8 -20 -2 0 -9 -3 -9 -10 2
-5 8 -10 10 -10 4 0 -16 32 -42 62 -49 24 -6 29 -3 38 19 10 26 30 36 30 14 0
-6 6 -3 14 7 20 28 91 24 118 -7 47 -54 45 -66 -29 -134 -37 -35 -70 -60 -74
-56 -4 4 -23 32 -42 63 -28 44 -33 59 -24 69 10 10 8 10 -10 1 -27 -14 -29
-31 -8 -71 8 -16 14 -33 13 -37 -5 -19 17 -59 51 -92 20 -20 46 -47 57 -61 43
-57 285 -259 322 -271 56 -17 107 2 197 71 43 33 79 60 80 60 1 0 3 -39 4 -86
1 -64 7 -97 22 -125 26 -53 33 -50 9 4 -23 51 -18 126 6 106 11 -9 17 -4 29
24 19 46 19 60 -1 25 -8 -16 -19 -28 -25 -28 -6 0 -7 5 -4 10 4 6 1 18 -6 26
-20 24 -5 158 27 244 l28 75 8 -39 c12 -55 13 -53 14 12 1 55 39 195 70 255
22 42 58 52 120 33 29 -9 63 -25 76 -36 24 -19 25 -23 22 -117 -3 -105 -23
-194 -49 -223 -9 -10 -14 -23 -11 -29 4 -5 2 -12 -4 -16 -5 -3 -10 -13 -10
-21 0 -9 -18 -46 -40 -84 -40 -68 -54 -105 -24 -62 8 12 20 19 26 16 7 -5 8
-2 3 5 -4 7 1 22 13 34 24 26 102 191 102 216 0 10 3 21 7 25 5 4 8 11 9 14 0
4 3 14 7 22 3 8 8 27 11 41 4 20 86 89 340 286 l334 260 -50 -5 c-50 -5 -50
-5 -38 18 l13 23 -28 -21 c-15 -12 -36 -22 -45 -22 -10 0 -35 -7 -56 -16 -28
-12 -57 -15 -100 -11 -34 2 -69 0 -80 -6 -10 -6 5 16 33 50 l52 60 -47 -11
c-42 -10 -44 -11 -19 -16 27 -5 27 -5 8 -22 -34 -29 -55 -37 -73 -27 -13 7
-15 5 -11 -10 7 -28 -14 -61 -39 -61 -12 0 -18 -3 -15 -7 4 -3 0 -15 -9 -25
-12 -12 -24 -16 -42 -11 -22 5 -24 3 -19 -16 9 -36 -16 -8 -32 34 -15 42 -9
54 16 34 16 -13 17 -12 4 4 -8 10 -19 16 -25 14 -10 -3 -36 13 -127 81 -25 19
-51 31 -61 29 -10 -3 -18 -1 -18 5 0 5 -4 7 -9 3 -6 -3 -15 3 -21 14 -9 18 -5
24 30 46 22 14 40 28 40 32 0 4 -5 2 -12 -5 -7 -7 -22 -12 -35 -12 -13 0 -23
-5 -23 -10 0 -6 -9 -2 -20 8 -26 24 -18 45 27 73 36 22 133 41 103 20 -9 -7
-10 -11 -3 -11 19 0 26 20 9 26 -9 3 -16 12 -16 19 0 20 61 64 79 58 13 -5 14
-3 4 8 -30 31 7 79 61 79 26 0 33 4 32 18 0 9 -10 23 -20 31 -18 13 -23 10
-63 -35 -24 -27 -46 -59 -49 -71 -3 -13 -13 -23 -21 -23 -9 0 -37 -18 -62 -40
-143 -123 -130 -115 -149 -97 -10 11 -12 17 -4 17 7 0 11 6 10 13 -2 6 24 26
57 43 39 20 96 66 163 133 56 55 119 108 139 116 48 20 53 13 8 -15 -34 -21
-40 -48 -6 -34 32 13 99 16 121 4 28 -15 50 1 32 23 -10 11 -4 16 31 24 23 6
51 14 62 18 16 7 15 3 -7 -22 -16 -16 -28 -36 -28 -45 0 -9 -6 -16 -12 -15
-39 1 -60 -6 -87 -29 -17 -14 -31 -30 -31 -34 0 -5 12 2 26 15 15 14 37 25 49
25 30 0 79 -54 71 -77 -5 -16 -5 -16 9 1 12 16 17 17 30 6 9 -8 14 -21 12 -31
-6 -24 10 -48 21 -31 16 24 74 -59 77 -110 1 -15 -3 -25 -8 -21 -5 3 -13 0
-17 -7 -6 -9 -13 -7 -29 9 -11 11 -21 17 -21 11 0 -5 -8 -7 -17 -3 -10 3 -5
-4 10 -17 l28 -22 -23 -26 -23 -26 25 17 c57 40 118 60 210 69 52 5 101 15
108 20 20 17 23 4 8 -34 -9 -20 -12 -38 -9 -41 3 -4 0 -13 -7 -22 -8 -10 -9
-15 -1 -15 21 0 11 -32 -11 -38 -23 -6 -23 -6 2 -13 l25 -6 -25 -11 c-36 -15
-14 -14 50 3 30 8 70 15 87 15 18 0 52 10 77 21 l44 22 131 -98 c91 -67 135
-94 144 -88 6 5 45 36 85 68 62 51 78 59 108 56 49 -4 126 36 202 105 l62 56
0 81 c0 72 -3 85 -23 103 -12 12 -30 20 -39 18 -15 -2 -16 1 -7 18 10 18 12
18 34 4 14 -9 27 -16 29 -16 3 0 5 86 6 191 0 173 -2 191 -16 185 -14 -6 -16
0 -10 41 3 27 9 80 12 118 l6 70 -32 12 c-17 7 -29 16 -26 22 8 12 -4 19 -25
14z m-909 -293 c0 -5 -5 -10 -11 -10 -5 0 -7 5 -4 10 3 6 8 10 11 10 2 0 4 -4
4 -10z m918 -310 c-9 -13 -14 -16 -20 -7 -8 13 10 39 23 31 5 -3 3 -14 -3 -24z
m-1133 -18 c-3 -3 -11 0 -18 7 -9 10 -8 11 6 5 10 -3 15 -9 12 -12z m-15 -38
c2 -3 -7 -4 -22 -2 -15 2 -30 7 -34 11 -3 3 6 4 22 1 16 -3 31 -7 34 -10z m87
10 c-3 -3 -12 -4 -19 -1 -8 3 -5 6 6 6 11 1 17 -2 13 -5z m765 -126 c-2 -7 -7
-41 -10 -75 l-7 -61 -104 74 c-57 40 -106 76 -109 79 -3 2 7 17 23 32 15 16
34 38 42 50 l15 22 76 -54 c43 -30 75 -60 74 -67z m-439 105 c-7 -2 -19 -2
-25 0 -7 3 -2 5 12 5 14 0 19 -2 13 -5z m-352 -15 c15 2 31 -4 40 -14 12 -15
12 -17 -1 -12 -8 3 -26 8 -40 12 -21 6 -20 4 8 -13 17 -11 32 -23 32 -25 0 -8
-60 15 -66 25 -3 5 -9 7 -14 4 -5 -3 -8 3 -7 14 0 11 6 17 12 13 5 -3 22 -5
36 -4z m-56 -29 c11 -16 2 -17 -25 -2 -24 12 -24 13 -3 13 12 0 25 -5 28 -11z
m48 -36 c-6 -16 -13 -16 -33 -2 -13 9 -12 10 3 5 9 -3 17 -1 17 4 0 6 -4 10
-10 10 -5 0 -10 5 -10 10 0 6 7 6 19 -2 10 -6 17 -18 14 -25z m-603 7 c0 -5
-5 -10 -11 -10 -5 0 -7 5 -4 10 3 6 8 10 11 10 2 0 4 -4 4 -10z m936 -15 c-3
-9 -10 -13 -16 -10 -6 4 -5 11 3 20 15 16 22 11 13 -10z m-130 -42 c-14 -40
-38 -51 -44 -19 -3 11 0 16 7 12 6 -4 15 4 21 18 15 42 31 31 16 -11z m164 2
c17 -9 30 -22 30 -30 0 -8 7 -15 16 -15 14 0 14 -3 4 -15 -31 -37 -144 1 -133
44 4 18 17 26 46 30 4 0 21 -6 37 -14z m-337 -23 c14 -4 7 -20 -12 -25 -12 -3
-27 3 -36 13 -14 16 -13 17 12 15 16 -1 31 -3 36 -3z m-852 -619 c-15 -32 -38
-86 -51 -121 -32 -89 -34 -71 -3 29 15 46 27 86 28 89 10 33 27 60 39 60 11 0
8 -14 -13 -57z m-481 34 c0 -5 -127 -97 -133 -97 -6 0 -29 72 -24 76 1 1 34 7
72 12 39 5 73 10 78 11 4 0 7 0 7 -2z m-331 -212 c11 -19 19 -35 17 -35 -2 0
-16 16 -30 35 -15 19 -23 35 -17 35 5 0 18 -16 30 -35z m36 -73 c-3 -3 -11 0
-18 7 -9 10 -8 11 6 5 10 -3 15 -9 12 -12z"/>
<path d="M1201 2444 c0 -11 3 -14 6 -6 3 7 2 16 -1 19 -3 4 -6 -2 -5 -13z"/>
<path d="M5140 2377 c0 -8 8 -21 18 -30 16 -15 18 -15 19 1 1 10 -7 24 -18 30
-15 10 -19 9 -19 -1z"/>
<path d="M6670 2305 c7 -8 16 -12 21 -9 13 8 1 24 -18 24 -13 0 -13 -3 -3 -15z"/>
<path d="M6330 2281 c0 -5 5 -11 12 -13 7 -3 6 -13 -7 -34 -9 -16 -11 -21 -2
-11 8 9 24 17 36 17 13 0 19 4 16 10 -4 6 -11 8 -16 5 -8 -6 -13 8 -10 28 0 4
-6 7 -14 7 -8 0 -15 -4 -15 -9z"/>
<path d="M2141 2264 c0 -11 3 -14 6 -6 3 7 2 16 -1 19 -3 4 -6 -2 -5 -13z"/>
<path d="M3451 2254 c-27 -34 -27 -54 0 -54 11 0 63 -28 116 -62 73 -47 99
-59 111 -52 9 6 17 15 19 21 2 6 -43 41 -99 77 -57 37 -103 72 -103 78 0 23
-23 18 -44 -8z m56 -30 c3 -8 9 -11 14 -8 5 3 8 0 7 -8 -2 -7 3 -12 10 -10 20
4 56 -24 42 -33 -9 -6 -120 68 -120 79 0 10 42 -8 47 -20z m131 -80 c12 -8 20
-19 17 -24 -3 -4 5 -6 17 -2 20 5 21 4 10 -11 -13 -15 -16 -15 -38 0 -24 15
-35 31 -12 17 7 -4 8 -3 4 4 -4 6 -13 9 -20 6 -7 -3 -16 2 -19 10 -8 21 12 21
41 0z"/>
<path d="M2175 2250 c-3 -5 -1 -10 4 -10 6 0 11 5 11 10 0 6 -2 10 -4 10 -3 0
-8 -4 -11 -10z"/>
<path d="M5200 2239 c7 -11 9 -23 6 -26 -2 -3 0 -10 5 -17 5 -6 17 -20 25 -31
15 -20 15 -19 5 2 -15 30 -14 36 7 28 9 -3 2 10 -17 29 -40 41 -46 44 -31 15z"/>
<path d="M5960 2250 c0 -5 5 -10 11 -10 5 0 7 5 4 10 -3 6 -8 10 -11 10 -2 0
-4 -4 -4 -10z"/>
<path d="M6410 2220 c0 -5 5 -10 11 -10 5 0 8 -4 5 -8 -3 -5 1 -9 9 -9 13 0
12 4 -2 19 -18 21 -23 22 -23 8z"/>
<path d="M5751 2066 c2 -2 15 -9 29 -15 24 -11 24 -11 6 3 -16 13 -49 24 -35
12z"/>
<path d="M6309 1993 c-13 -16 -12 -17 4 -4 16 13 21 21 13 21 -2 0 -10 -8 -17
-17z"/>
<path d="M6175 1953 l-50 -45 43 27 c23 15 42 32 42 37 0 5 4 7 8 4 5 -3 9 1
9 9 0 8 -1 15 -1 15 -1 -1 -23 -21 -51 -47z"/>
<path d="M5220 1926 c0 -2 8 -10 18 -17 15 -13 16 -12 3 4 -13 16 -21 21 -21
13z"/>
<path d="M1450 1883 c-27 -18 -59 -54 -60 -64 0 -4 15 7 33 25 18 17 41 36 52
43 11 6 15 12 10 12 -6 1 -22 -7 -35 -16z"/>
<path d="M5243 1887 c-20 -11 -70 -67 -59 -67 2 0 17 12 33 28 16 15 38 32 48
39 26 16 6 16 -22 0z"/>
<path d="M3481 1844 c-22 -28 -20 -44 5 -44 8 0 55 -27 104 -60 49 -33 96 -60
104 -60 11 0 26 20 26 34 0 2 -43 32 -95 66 -52 34 -95 69 -95 76 0 23 -27 16
-49 -12z m29 -15 c0 -5 4 -8 10 -4 5 3 18 -3 30 -15 11 -11 24 -20 30 -20 5 0
24 -13 42 -29 18 -15 43 -31 56 -35 12 -4 22 -14 22 -22 0 -20 -12 -17 -42 11
-15 14 -31 26 -35 26 -5 1 -7 5 -5 10 2 8 -12 13 -30 11 -3 -1 -12 5 -18 13
-7 8 -18 15 -24 15 -12 1 -56 35 -56 44 0 3 5 6 10 6 6 0 10 -5 10 -11z"/>
<path d="M2436 1824 c-9 -8 -16 -18 -16 -20 0 -7 38 15 45 26 10 16 -12 12
-29 -6z"/>
<path d="M2492 1814 c-11 -12 -9 -14 8 -14 11 0 20 4 20 9 0 17 -15 19 -28 5z"/>
<path d="M1339 1773 l-24 -26 33 23 c33 25 38 30 24 30 -5 0 -19 -12 -33 -27z"/>
<path d="M2535 1791 c3 -5 -3 -12 -12 -14 -11 -3 -8 -5 10 -6 17 -1 27 -7 27
-17 0 -9 -5 -12 -12 -8 -7 5 -8 3 -3 -5 5 -9 10 -10 18 -2 12 12 -9 61 -25 61
-5 0 -7 -4 -3 -9z"/>
<path d="M5124 1768 c-23 -26 -24 -28 -4 -12 14 12 34 26 45 32 15 9 16 11 4
12 -8 0 -28 -15 -45 -32z"/>
<path d="M1250 1709 c-25 -20 -25 -20 -1 -9 13 7 36 10 52 8 32 -5 27 6 -6 16
-12 3 -30 -2 -45 -15z"/>
<path d="M5035 1705 l-30 -24 37 17 c21 9 37 20 38 25 0 13 -14 7 -45 -18z"/>
<path d="M5090 1716 c0 -2 7 -7 16 -10 8 -3 12 -2 9 4 -6 10 -25 14 -25 6z"/>
<path d="M1360 1636 c0 -6 9 -12 20 -13 11 -1 20 2 20 6 0 5 -9 11 -20 14 -12
3 -20 0 -20 -7z"/>
<path d="M5150 1636 c0 -6 9 -12 20 -12 11 0 20 3 20 7 0 4 -9 9 -20 12 -12 3
-20 0 -20 -7z"/>
<path d="M1636 1625 c4 -8 10 -12 15 -9 11 6 2 24 -11 24 -5 0 -7 -7 -4 -15z"/>
<path d="M5420 1630 c0 -5 7 -10 16 -10 8 0 12 5 9 10 -3 6 -10 10 -16 10 -5
0 -9 -4 -9 -10z"/>
<path d="M4947 1619 c7 -7 15 -10 18 -7 3 3 -2 9 -12 12 -14 6 -15 5 -6 -5z"/>
<path d="M5190 1596 c0 -2 7 -7 16 -10 8 -3 12 -2 9 4 -6 10 -25 14 -25 6z"/>
<path d="M1430 1586 c0 -3 9 -10 20 -16 11 -6 20 -8 20 -6 0 3 -9 10 -20 16
-11 6 -20 8 -20 6z"/>
<path d="M2095 1539 c17 -19 33 -31 36 -26 4 5 10 1 13 -10 7 -22 144 -149
151 -141 7 7 -31 45 -65 65 -18 10 -50 45 -72 78 -22 33 -37 49 -33 35 7 -25
7 -25 -26 5 l-33 30 29 -36z"/>
<path d="M1380 1466 c0 -2 8 -10 18 -17 15 -13 16 -12 3 4 -13 16 -21 21 -21
13z"/>
<path d="M540 1450 c-8 -5 -10 -10 -5 -10 6 0 17 5 25 10 8 5 11 10 5 10 -5 0
-17 -5 -25 -10z"/>
<path d="M4330 1450 c-13 -8 -13 -10 2 -10 9 0 20 5 23 10 8 13 -5 13 -25 0z"/>
<path d="M2452 1408 c-10 -30 -10 -31 3 -14 13 17 21 46 12 46 -1 0 -8 -15
-15 -32z"/>
<path d="M151 1328 c-39 -29 -70 -57 -71 -62 0 -5 10 0 23 11 12 11 48 37 80
58 31 21 57 39 57 41 0 12 -26 -2 -89 -48z"/>
<path d="M3942 1328 c-38 -29 -68 -55 -67 -56 2 -2 34 17 72 44 83 58 90 64
76 64 -6 0 -42 -24 -81 -52z"/>
<path d="M375 1294 c-47 -39 -128 -91 -150 -97 -17 -4 -18 -5 -2 -6 24 -1 91
39 147 88 49 44 53 55 5 15z"/>
<path d="M590 1310 c-8 -5 -10 -10 -5 -10 6 0 17 5 25 10 8 5 11 10 5 10 -5 0
-17 -5 -25 -10z"/>
<path d="M4145 1279 c-69 -56 -79 -68 -23 -29 43 30 88 71 77 70 -2 -1 -26
-19 -54 -41z"/>
<path d="M540 1290 c-9 -6 -10 -10 -3 -10 6 0 15 5 18 10 8 12 4 12 -15 0z"/>
<path d="M4218 1261 c-65 -50 -83 -71 -29 -32 24 17 51 31 59 31 9 0 12 3 9 7
-4 3 -2 12 4 20 17 20 8 15 -43 -26z"/>
<path d="M500 1280 c-9 -6 -10 -10 -3 -10 6 0 15 5 18 10 8 12 4 12 -15 0z"/>
<path d="M413 1249 c-18 -12 -33 -23 -33 -26 0 -3 12 3 27 12 14 10 38 21 52
25 20 7 22 8 6 9 -11 0 -35 -9 -52 -20z"/>
<path d="M3871 1244 c-1 -12 6 -25 15 -28 13 -5 14 -3 7 6 -6 7 -13 20 -16 28
-4 10 -6 8 -6 -6z"/>
<path d="M80 1230 c0 -5 5 -10 11 -10 5 0 7 5 4 10 -3 6 -8 10 -11 10 -2 0 -4
-4 -4 -10z"/>
<path d="M4045 1211 c-6 -5 -21 -11 -35 -14 l-25 -4 26 -2 c14 0 34 6 45 14
10 8 14 15 9 15 -6 0 -15 -4 -20 -9z"/>
<path d="M140 1190 c0 -5 15 -10 33 -10 24 0 28 3 17 10 -20 13 -50 13 -50 0z"/>
<path d="M3930 1190 c0 -5 12 -10 26 -10 14 0 23 4 19 10 -3 6 -15 10 -26 10
-10 0 -19 -4 -19 -10z"/>
<path d="M480 1180 c-20 -6 -21 -8 -5 -8 11 0 29 3 40 8 25 11 -1 11 -35 0z"/>
<path d="M408 1163 c6 -2 18 -2 25 0 6 3 1 5 -13 5 -14 0 -19 -2 -12 -5z"/>
<path d="M4208 1163 c7 -3 16 -2 19 1 4 3 -2 6 -13 5 -11 0 -14 -3 -6 -6z"/>
<path d="M35 1105 c20 -27 45 -65 57 -82 11 -18 22 -33 24 -33 8 0 -18 44 -38
67 -12 13 -17 27 -12 35 4 7 4 10 0 6 -4 -3 -21 8 -38 25 -25 27 -24 24 7 -18z"/>
<path d="M3817 1115 c37 -53 94 -129 100 -135 3 -3 1 5 -5 16 -6 12 -8 25 -4
29 4 5 3 6 -3 3 -5 -4 -21 10 -35 29 -14 19 -38 49 -53 66 l-29 32 29 -40z"/>
<path d="M1205 1080 c-4 -23 -5 -44 -2 -46 3 -3 8 13 12 36 4 23 5 44 2 46 -3
3 -8 -13 -12 -36z"/>
<path d="M4996 1078 c-9 -29 -16 -81 -10 -75 8 7 23 87 17 87 -2 0 -5 -6 -7
-12z"/>
<path d="M1146 874 c-4 -9 -4 -19 -1 -22 2 -3 7 3 11 12 4 9 4 19 1 22 -2 3
-7 -3 -11 -12z"/>
<path d="M4941 883 c-1 -6 -4 -20 -7 -30 -5 -17 -5 -17 6 0 6 10 9 23 6 30 -3
9 -5 9 -5 0z"/>
<path d="M1126 823 c-6 -14 -5 -15 5 -6 7 7 10 15 7 18 -3 3 -9 -2 -12 -12z"/>
<path d="M4915 819 c-4 -6 -5 -12 -2 -15 2 -3 7 2 10 11 7 17 1 20 -8 4z"/>
<path d="M4752 730 c0 -19 2 -27 5 -17 2 9 2 25 0 35 -3 9 -5 1 -5 -18z"/>
<path d="M956 699 c-4 -28 -5 -53 -3 -56 3 -2 8 19 12 47 4 28 5 53 2 56 -2 3
-7 -19 -11 -47z"/>
<path d="M206 725 c-10 -8 -39 -17 -65 -21 -50 -7 -93 -38 -84 -61 4 -10 9
-11 16 -4 6 6 19 11 28 11 10 0 30 11 46 24 15 13 38 26 50 30 11 4 24 13 27
21 7 18 6 18 -18 0z"/>
<path d="M3997 726 c-10 -8 -38 -17 -63 -21 -51 -7 -105 -47 -89 -64 12 -12
54 6 111 45 16 12 37 24 47 27 9 4 17 11 17 17 0 13 -1 12 -23 -4z"/>
<path d="M4742 660 c0 -14 2 -19 5 -12 2 6 2 18 0 25 -3 6 -5 1 -5 -13z"/>
<path d="M50 605 c-11 -13 -10 -14 4 -9 9 3 16 10 16 15 0 13 -6 11 -20 -6z"/>
<path d="M1022 595 c0 -16 2 -22 5 -12 2 9 2 23 0 30 -3 6 -5 -1 -5 -18z"/>
<path d="M3839 603 c-13 -15 -12 -15 9 -4 23 12 28 21 13 21 -5 0 -15 -7 -22
-17z"/>
<path d="M4812 595 c0 -16 2 -22 5 -12 2 9 2 23 0 30 -3 6 -5 -1 -5 -18z"/>
<path d="M4911 558 c-35 -80 -40 -106 -25 -119 18 -15 18 -29 -1 -29 -8 0 -15
-7 -15 -15 0 -8 -4 -15 -9 -15 -5 0 -12 -7 -15 -16 -3 -8 -2 -12 4 -9 5 3 12
-6 16 -20 3 -13 10 -23 14 -20 12 8 20 -69 11 -101 -6 -16 -21 -56 -35 -89
-14 -33 -25 -69 -25 -80 0 -14 2 -15 6 -5 3 8 14 35 25 60 50 108 59 177 33
250 -8 24 -13 45 -10 48 7 7 32 -57 39 -104 8 -45 -14 -155 -39 -204 -9 -17
-11 -30 -5 -30 5 0 10 -7 10 -16 0 -13 3 -14 14 -5 11 9 15 6 20 -14 4 -14 11
-25 16 -25 13 0 13 16 -2 39 -12 19 -13 16 43 166 12 33 24 92 27 131 5 85
-10 122 -68 160 l-39 26 20 39 c10 21 17 39 14 39 -3 0 -14 -19 -24 -42z m59
-170 c0 -6 -6 -5 -15 2 -8 7 -15 14 -15 16 0 2 7 1 15 -2 8 -4 15 -11 15 -16z
m-24 -10 c4 -7 3 -8 -4 -4 -17 10 -15 -16 3 -41 8 -12 16 -33 17 -47 1 -14 6
-26 10 -26 10 0 -2 -59 -19 -93 -20 -40 -22 -31 -10 36 9 48 8 67 -7 112 -9
31 -14 60 -11 65 8 13 12 13 21 -2z"/>
<path d="M3765 575 c-39 -17 -21 -18 25 0 19 7 28 14 20 14 -8 0 -28 -6 -45
-14z"/>
<path d="M1118 558 c-14 -28 -28 -118 -17 -118 5 0 8 -12 8 -27 -1 -16 6 -56
15 -90 15 -56 15 -68 1 -134 -9 -40 -20 -78 -26 -86 -16 -18 -2 -66 16 -59 20
7 19 -3 -2 -26 -14 -16 -14 -18 0 -18 8 0 18 6 20 13 4 9 6 9 6 -1 1 -7 5 -11
11 -7 6 4 5 15 -2 30 -8 19 -7 34 7 72 60 167 63 179 62 248 -2 81 -19 115
-73 147 -33 19 -33 20 -19 49 18 34 12 40 -7 7z m54 -278 c1 -17 5 -27 11 -23
11 7 4 -34 -15 -79 -16 -41 -28 -34 -16 9 9 35 7 74 -7 138 l-7 30 17 -23 c9
-12 17 -36 17 -52z"/>
<path d="M1084 408 c-5 -13 -7 -26 -6 -30 1 -5 -5 -8 -14 -8 -13 0 -13 -2 -2
-15 30 -34 35 -42 41 -78 6 -37 -18 -131 -32 -123 -4 3 -7 -3 -8 -12 0 -9 -3
-33 -7 -52 -6 -32 -5 -33 5 -10 6 14 20 42 31 63 28 55 34 132 14 199 -9 31
-13 63 -10 72 3 9 4 16 1 16 -3 0 -9 -10 -13 -22z"/>
<path d="M921 377 c0 -10 8 -39 18 -65 10 -26 29 -75 41 -109 12 -35 24 -63
26 -63 12 0 -11 115 -33 160 -14 30 -25 59 -24 63 1 5 -3 6 -8 3 -5 -4 -12 2
-14 11 -4 17 -5 17 -6 0z"/>
<path d="M4710 374 c0 -8 9 -36 19 -62 10 -26 31 -78 45 -117 l26 -70 -6 55
c-6 61 -27 127 -57 177 -21 37 -27 40 -27 17z"/>
<path d="M1022 212 c-1 -51 -5 -91 -9 -89 -5 3 -8 -21 -8 -53 0 -32 3 -62 8
-66 4 -4 7 19 7 52 0 38 6 68 16 82 9 13 12 27 7 35 -4 6 -11 39 -14 72 -5 55
-6 52 -7 -33z"/>
<path d="M4811 216 c-1 -87 -1 -89 18 -70 11 11 14 22 8 25 -5 4 -13 36 -17
70 l-7 64 -2 -89z"/>
<path d="M4806 108 c-11 -35 -15 -97 -7 -102 5 -4 11 21 13 54 3 59 1 72 -6
48z"/>
<path d="M4900 10 c-13 -8 -12 -10 3 -10 9 0 17 5 17 10 0 12 -1 12 -20 0z"/>
</g>
</svg>
