<svg xmlns="http://www.w3.org/2000/svg" width="54.727" height="54.727" viewBox="0 0 54.727 54.727">
  <g id="Covid" transform="translate(445 -192)">
    <circle id="Background" cx="27.364" cy="27.364" r="27.364" transform="translate(-445 192)" fill="#fff"/>
    <g id="covid-19" transform="translate(-431 206)">
      <g id="Group_2853" data-name="Group 2853" transform="translate(3.77 16.893)">
        <path id="Path_8013" data-name="Path 8013" d="M18.511,47.847a10.175,10.175,0,0,1-9.23-5.925l.739-.338a9.339,9.339,0,0,0,16.982,0l.739.338A10.174,10.174,0,0,1,18.511,47.847Z" transform="translate(-9.281 -41.584)" fill="#ff5d5d" stroke="#ff5d5d" stroke-width="0.5"/>
      </g>
      <g id="Group_2854" data-name="Group 2854" transform="translate(3.771 2.844)">
        <path id="Path_8014" data-name="Path 8014" d="M27,13.263a9.339,9.339,0,0,0-16.981,0l-.739-.338a10.151,10.151,0,0,1,18.459,0Z" transform="translate(-9.282 -7)" fill="#ff5d5d" stroke="#ff5d5d" stroke-width="0.5"/>
      </g>
      <g id="Group_2857" data-name="Group 2857" transform="translate(11.781)">
        <g id="Group_2855" data-name="Group 2855" transform="translate(0.813 0.406)">
          <path id="Path_8015" data-name="Path 8015" d="M31,1h.813V3.844H31Z" transform="translate(-31 -1)" fill="#ff5d5d" stroke="#ff5d5d" stroke-width="0.5"/>
        </g>
        <g id="Group_2856" data-name="Group 2856">
          <path id="Path_8016" data-name="Path 8016" d="M29,0h2.437V.812H29Z" transform="translate(-29)" fill="#ff5d5d" stroke="#ff5d5d" stroke-width="0.5"/>
        </g>
      </g>
      <g id="Group_2860" data-name="Group 2860" transform="translate(11.781 22.75)">
        <g id="Group_2858" data-name="Group 2858" transform="translate(0.813)">
          <path id="Path_8017" data-name="Path 8017" d="M31,56h.813v2.844H31Z" transform="translate(-31 -56)" fill="#ff5d5d" stroke="#ff5d5d" stroke-width="0.5"/>
        </g>
        <g id="Group_2859" data-name="Group 2859" transform="translate(0 2.438)">
          <path id="Path_8018" data-name="Path 8018" d="M29,62h2.437v.813H29Z" transform="translate(-29 -62)" fill="#ff5d5d" stroke="#ff5d5d" stroke-width="0.5"/>
        </g>
      </g>
      <g id="Group_2863" data-name="Group 2863" transform="translate(16.359 0.521)">
        <g id="Group_2861" data-name="Group 2861" transform="translate(0 0.685)">
          <path id="Path_8019" data-name="Path 8019" d="M0,0H2.844V.812H0Z" transform="translate(0 2.628) rotate(-67.486)" fill="#ff5d5d" stroke="#ff5d5d" stroke-width="0.5"/>
        </g>
        <g id="Group_2862" data-name="Group 2862" transform="translate(0.185 0)">
          <path id="Path_8020" data-name="Path 8020" d="M0,0H.813V2.438H0Z" transform="translate(0 0.751) rotate(-67.486)" fill="#ff5d5d" stroke="#ff5d5d" stroke-width="0.5"/>
        </g>
      </g>
      <g id="Group_2866" data-name="Group 2866" transform="translate(6.904 21.855)">
        <g id="Group_2864" data-name="Group 2864" transform="translate(0.906 0)">
          <path id="Path_8021" data-name="Path 8021" d="M0,0H2.844V.813H0Z" transform="translate(0 2.628) rotate(-67.486)" fill="#ff5d5d" stroke="#ff5d5d" stroke-width="0.5"/>
        </g>
        <g id="Group_2865" data-name="Group 2865" transform="translate(0 1.945)">
          <path id="Path_8022" data-name="Path 8022" d="M0,0H.813V2.438H0Z" transform="translate(0 0.751) rotate(-67.486)" fill="#ff5d5d" stroke="#ff5d5d" stroke-width="0.5"/>
        </g>
      </g>
      <g id="Group_2879" data-name="Group 2879" transform="translate(2.943 2.946)">
        <g id="Group_2869" data-name="Group 2869" transform="translate(16.662 0.002)">
          <g id="Group_2867" data-name="Group 2867" transform="translate(0 0.862)">
            <path id="Path_8023" data-name="Path 8023" d="M0,0H2.843V.812H0Z" transform="translate(0 2.01) rotate(-45)" fill="#ff5d5d" stroke="#ff5d5d" stroke-width="0.5"/>
          </g>
          <g id="Group_2868" data-name="Group 2868" transform="translate(1.149 0)">
            <path id="Path_8024" data-name="Path 8024" d="M0,0H.812V2.438H0Z" transform="translate(0 0.574) rotate(-45)" fill="#ff5d5d" stroke="#ff5d5d" stroke-width="0.5"/>
          </g>
        </g>
        <g id="Group_2872" data-name="Group 2872" transform="translate(0 16.66)">
          <g id="Group_2870" data-name="Group 2870" transform="translate(0.862 0)">
            <path id="Path_8025" data-name="Path 8025" d="M0,0H2.843V.812H0Z" transform="translate(0 2.01) rotate(-45)" fill="#ff5d5d" stroke="#ff5d5d" stroke-width="0.5"/>
          </g>
          <g id="Group_2871" data-name="Group 2871" transform="translate(0 1.148)">
            <path id="Path_8026" data-name="Path 8026" d="M0,0H.812V2.438H0Z" transform="translate(0 0.574) rotate(-45)" fill="#ff5d5d" stroke="#ff5d5d" stroke-width="0.5"/>
          </g>
        </g>
        <g id="Group_2875" data-name="Group 2875" transform="translate(16.66 16.661)">
          <g id="Group_2873" data-name="Group 2873" transform="translate(0 0)">
            <path id="Path_8027" data-name="Path 8027" d="M0,0H.812V2.843H0Z" transform="translate(0 0.574) rotate(-45)" fill="#ff5d5d" stroke="#ff5d5d" stroke-width="0.5"/>
          </g>
          <g id="Group_2874" data-name="Group 2874" transform="translate(1.149 1.149)">
            <path id="Path_8028" data-name="Path 8028" d="M0,0H2.438V.812H0Z" transform="translate(0 1.724) rotate(-45)" fill="#ff5d5d" stroke="#ff5d5d" stroke-width="0.5"/>
          </g>
        </g>
        <g id="Group_2878" data-name="Group 2878" transform="translate(0.002 0)">
          <g id="Group_2876" data-name="Group 2876" transform="translate(0.862 0.862)">
            <path id="Path_8029" data-name="Path 8029" d="M0,0H.812V2.843H0Z" transform="translate(0 0.574) rotate(-45)" fill="#ff5d5d" stroke="#ff5d5d" stroke-width="0.5"/>
          </g>
          <g id="Group_2877" data-name="Group 2877" transform="translate(0)">
            <path id="Path_8030" data-name="Path 8030" d="M0,0H2.438V.812H0Z" transform="translate(0 1.724) rotate(-45)" fill="#ff5d5d" stroke="#ff5d5d" stroke-width="0.5"/>
          </g>
        </g>
      </g>
      <g id="Group_2882" data-name="Group 2882" transform="translate(16.365 21.848)">
        <g id="Group_2880" data-name="Group 2880" transform="translate(0 0)">
          <path id="Path_8031" data-name="Path 8031" d="M0,0H.812V2.844H0Z" transform="translate(0 0.311) rotate(-22.514)" fill="#ff5d5d" stroke="#ff5d5d" stroke-width="0.5"/>
        </g>
        <g id="Group_2881" data-name="Group 2881" transform="translate(0.18 1.946)">
          <path id="Path_8032" data-name="Path 8032" d="M0,0H2.437V.812H0Z" transform="translate(0 0.934) rotate(-22.514)" fill="#ff5d5d" stroke="#ff5d5d" stroke-width="0.5"/>
        </g>
      </g>
      <g id="Group_2885" data-name="Group 2885" transform="translate(6.901 0.522)">
        <g id="Group_2883" data-name="Group 2883" transform="translate(0.906 0.684)">
          <path id="Path_8033" data-name="Path 8033" d="M0,0H.812V2.844H0Z" transform="translate(0 0.311) rotate(-22.514)" fill="#ff5d5d" stroke="#ff5d5d" stroke-width="0.5"/>
        </g>
        <g id="Group_2884" data-name="Group 2884" transform="translate(0 0)">
          <path id="Path_8034" data-name="Path 8034" d="M0,0H2.438V.812H0Z" transform="translate(0 0.934) rotate(-22.514)" fill="#ff5d5d" stroke="#ff5d5d" stroke-width="0.5"/>
        </g>
      </g>
      <g id="Group_2886" data-name="Group 2886" transform="translate(0 8.531)">
        <path id="Path_8035" data-name="Path 8035" d="M23.969,29.937H2.031A2.034,2.034,0,0,1,0,27.906V23.031A2.034,2.034,0,0,1,2.031,21H23.969A2.034,2.034,0,0,1,26,23.031v4.875A2.034,2.034,0,0,1,23.969,29.937ZM2.031,21.812A1.22,1.22,0,0,0,.812,23.031v4.875a1.22,1.22,0,0,0,1.219,1.219H23.969a1.22,1.22,0,0,0,1.219-1.219V23.031a1.22,1.22,0,0,0-1.219-1.219Z" transform="translate(0 -21)" fill="#ff5d5d" stroke="#ff5d5d" stroke-width="0.5"/>
      </g>
      <g id="Group_2887" data-name="Group 2887" transform="translate(1.625 10.969)">
        <path id="Path_8036" data-name="Path 8036" d="M6.031,31.062a2.031,2.031,0,1,1,1.016-3.789l-.406.7a1.206,1.206,0,0,0-.609-.165,1.219,1.219,0,1,0,.61,2.273l.405.7A2.037,2.037,0,0,1,6.031,31.062Z" transform="translate(-4 -27)" fill="#ff5d5d"/>
      </g>
      <g id="Group_2888" data-name="Group 2888" transform="translate(8.531 10.969)">
        <path id="Path_8037" data-name="Path 8037" d="M23.031,31.063,21,27.394,21.711,27l1.32,2.385L24.351,27l.711.394Z" transform="translate(-21 -27)" fill="#ff5d5d"/>
      </g>
      <g id="Group_2889" data-name="Group 2889" transform="translate(13 10.969)">
        <path id="Path_8038" data-name="Path 8038" d="M32,27h.813v4.063H32Z" transform="translate(-32 -27)" fill="#ff5d5d"/>
      </g>
      <g id="Group_2890" data-name="Group 2890" transform="translate(4.875 10.969)">
        <path id="Path_8039" data-name="Path 8039" d="M13.828,31.062a2.043,2.043,0,0,1,0-4.062,2.043,2.043,0,0,1,0,4.063Zm0-3.25a1.239,1.239,0,0,0,0,2.437,1.239,1.239,0,0,0,0-2.437Z" transform="translate(-12 -27)" fill="#ff5d5d"/>
      </g>
      <g id="Group_2891" data-name="Group 2891" transform="translate(14.625 10.969)">
        <path id="Path_8040" data-name="Path 8040" d="M37.219,31.062H36V27h1.219a2.031,2.031,0,1,1,0,4.063Zm-.406-.812h.406a1.219,1.219,0,1,0,0-2.437h-.406Z" transform="translate(-36 -27)" fill="#ff5d5d"/>
      </g>
      <g id="Group_2892" data-name="Group 2892" transform="translate(19.906 10.969)">
        <path id="Path_8041" data-name="Path 8041" d="M49,27h.812v4.063H49Z" transform="translate(-49 -27)" fill="#ff5d5d"/>
      </g>
      <g id="Group_2893" data-name="Group 2893" transform="translate(21.531 10.969)">
        <path id="Path_8042" data-name="Path 8042" d="M54.422,29.844a1.422,1.422,0,1,1,1.422-1.422A1.423,1.423,0,0,1,54.422,29.844Zm0-2.031a.609.609,0,1,0,.609.609A.61.61,0,0,0,54.422,27.813Z" transform="translate(-53 -27)" fill="#ff5d5d"/>
      </g>
      <g id="Group_2894" data-name="Group 2894" transform="translate(21.937 12.391)">
        <path id="Path_8043" data-name="Path 8043" d="M54.917,33.141H54v-.812h.917a.709.709,0,0,0,.708-.708V30.5h.812v1.12A1.522,1.522,0,0,1,54.917,33.141Z" transform="translate(-54 -30.5)" fill="#ff5d5d"/>
      </g>
      <g id="Group_2895" data-name="Group 2895" transform="translate(18.281 12.594)">
        <path id="Path_8044" data-name="Path 8044" d="M45,31h1.219v.813H45Z" transform="translate(-45 -31)" fill="#ff5d5d"/>
      </g>
    </g>
  </g>
</svg>
