<svg xmlns="http://www.w3.org/2000/svg" width="54.727" height="54.727" viewBox="0 0 54.727 54.727">
  <g id="Diabetes" transform="translate(355 -192)">
    <circle id="Background" cx="27.364" cy="27.364" r="27.364" transform="translate(-355 192)" fill="#fff"/>
    <g id="diabetes-2" data-name="diabetes" transform="translate(-434.5 206)">
      <path id="Path_8045" data-name="Path 8045" d="M111.068,0h-9.141A3.432,3.432,0,0,0,98.5,3.428v10a8,8,0,0,0,6.094,7.769v4.418a.381.381,0,0,0,.381.381h3.047a.381.381,0,0,0,.381-.381V21.2a8,8,0,0,0,6.094-7.769v-10A3.432,3.432,0,0,0,111.068,0Zm-3.428,22.191h-2.285V18.383h2.285Zm-2.285,3.047V22.953h2.285v2.285Zm8.379-11.807a7.259,7.259,0,0,1-5.332,6.983V18a.381.381,0,0,0-.381-.381h-3.047a.381.381,0,0,0-.381.381v2.413a7.259,7.259,0,0,1-5.332-6.983v-10A2.669,2.669,0,0,1,101.928.762h9.141a2.669,2.669,0,0,1,2.666,2.666Z" fill="#5bb9ec" stroke="#5bb9ec" stroke-width="0.2"/>
      <path id="Path_8046" data-name="Path 8046" d="M168.4,60.381a.381.381,0,0,0-.381-.381h-9.141a.381.381,0,0,0-.381.381v7.338a.381.381,0,0,0,.381.381h9.141a.381.381,0,0,0,.381-.381Zm-.762,6.957h-8.379V60.762h8.379Z" transform="translate(-56.953 -56.953)" fill="#5bb9ec" stroke="#5bb9ec" stroke-width="0.2"/>
      <ellipse id="Ellipse_13" data-name="Ellipse 13" cx="0.419" cy="0.21" rx="0.419" ry="0.21" transform="translate(106.048 23.903)" fill="#5bb9ec" stroke="#5bb9ec" stroke-width="0.2"/>
      <path id="Path_8047" data-name="Path 8047" d="M139.545,30H130.4a1.906,1.906,0,0,0-1.9,1.9.381.381,0,0,0,.762,0,1.144,1.144,0,0,1,1.143-1.143h9.141a1.144,1.144,0,0,1,1.143,1.143v10a5.738,5.738,0,0,1-2.285,4.567,1.906,1.906,0,0,0-1.9-1.9h-3.047a1.906,1.906,0,0,0-1.9,1.9,5.738,5.738,0,0,1-2.285-4.567v-8.48a.381.381,0,1,0-.762,0v8.48a6.5,6.5,0,0,0,3.237,5.605.381.381,0,0,0,.572-.33v-.705a1.144,1.144,0,0,1,1.143-1.143H136.5a1.144,1.144,0,0,1,1.143,1.143v.705a.381.381,0,0,0,.572.329,6.5,6.5,0,0,0,3.237-5.605v-10A1.906,1.906,0,0,0,139.545,30Z" transform="translate(-28.477 -28.477)" fill="#5bb9ec" stroke="#5bb9ec" stroke-width="0.2"/>
      <path id="Path_8048" data-name="Path 8048" d="M160.023,237.547a1.523,1.523,0,1,0-1.523-1.523A1.525,1.525,0,0,0,160.023,237.547Zm0-2.285a.762.762,0,1,1-.762.762A.763.763,0,0,1,160.023,235.262Z" transform="translate(-56.953 -222.592)" fill="#5bb9ec" stroke="#5bb9ec" stroke-width="0.2"/>
      <path id="Path_8049" data-name="Path 8049" d="M295.023,234.5a1.523,1.523,0,1,0,1.523,1.523A1.525,1.525,0,0,0,295.023,234.5Zm0,2.285a.762.762,0,1,1,.762-.762A.763.763,0,0,1,295.023,236.785Z" transform="translate(-185.098 -222.592)" fill="#5bb9ec" stroke="#5bb9ec" stroke-width="0.2"/>
      <path id="Path_8050" data-name="Path 8050" d="M220.4,95.053a1.9,1.9,0,0,0,1.59-2.953l-1.272-1.929a.381.381,0,0,0-.636,0L218.815,92.1a1.9,1.9,0,0,0,1.59,2.953Zm-.954-2.533.954-1.447.954,1.447a1.143,1.143,0,1,1-1.908,0Z" transform="translate(-113.906 -85.43)" fill="#5bb9ec" stroke="#5bb9ec" stroke-width="0.2"/>
    </g>
  </g>
</svg>
