<svg xmlns="http://www.w3.org/2000/svg" width="54.727" height="54.727" viewBox="0 0 54.727 54.727">
  <g id="Group_2955" data-name="Group 2955" transform="translate(379.864 242.273)">
    <g id="Group_2917" data-name="Group 2917" transform="translate(-70.864 -319.273)">
      <g id="Group_2906" data-name="Group 2906" transform="translate(-87)">
        <g id="Yoga" transform="translate(-58 -115)">
          <circle id="Background" cx="27.364" cy="27.364" r="27.364" transform="translate(-164 192)" fill="#fff"/>
        </g>
      </g>
    </g>
    <g id="stethoscope" transform="translate(-397.643 -225.955)">
      <g id="Group_2950" data-name="Group 2950" transform="translate(50.215 8.057)">
        <g id="Group_2949" data-name="Group 2949">
          <path id="Path_8123" data-name="Path 8123" d="M381.409,179.331a1.357,1.357,0,1,0,1.357,1.357A1.358,1.358,0,0,0,381.409,179.331Zm0,2.038a.682.682,0,1,1,.682-.682A.683.683,0,0,1,381.409,181.369Z" transform="translate(-380.053 -179.331)" fill="#ff73ca"/>
        </g>
      </g>
      <g id="Group_2952" data-name="Group 2952" transform="translate(34.701 0.001)">
        <g id="Group_2951" data-name="Group 2951" transform="translate(0 0)">
          <path id="Path_8124" data-name="Path 8124" d="M51.572,6.4a.337.337,0,1,0,0,.675,2.337,2.337,0,0,1,.315,4.652l-.021,0q-.065.008-.131.013H51.72a2.357,2.357,0,0,1-.3,0h-.015q-.066,0-.131-.013l-.021,0A2.338,2.338,0,0,1,50.6,7.287a.337.337,0,0,0-.281-.613,3.013,3.013,0,0,0,.221,5.569v4.815a3.878,3.878,0,0,1-7.756,0v-2.89A7.034,7.034,0,0,0,47.4,10.635a1.034,1.034,0,0,0-.11-1.228C48.5,7.062,49.037,4.849,48.7,3.587a3.45,3.45,0,0,0-2.445-2.158,1.4,1.4,0,0,0-.508-.9,2.073,2.073,0,0,0-.993-.516A1.306,1.306,0,0,0,43.351,1.2a1.48,1.48,0,0,0,.189.994,1.139,1.139,0,0,0,.8.552,1.316,1.316,0,0,0,.2.014,2.242,2.242,0,0,0,.905-.212,1.6,1.6,0,0,0,.615-.469,2.9,2.9,0,0,1,1.991,1.685c.219.831-.012,2.711-1.351,5.319a1.031,1.031,0,0,0-1.059.476c-1.078,1.754-2.387,2.644-3.891,2.644s-2.813-.889-3.891-2.644A1.034,1.034,0,0,0,36.8,9.079C35.462,6.47,35.231,4.59,35.45,3.759a2.9,2.9,0,0,1,1.991-1.685,1.6,1.6,0,0,0,.615.469,2.242,2.242,0,0,0,.905.212,1.316,1.316,0,0,0,.2-.014,1.14,1.14,0,0,0,.8-.552,1.48,1.48,0,0,0,.189-.994A1.306,1.306,0,0,0,38.744.013a2.073,2.073,0,0,0-.993.516,1.4,1.4,0,0,0-.508.9A3.449,3.449,0,0,0,34.8,3.587c-.332,1.261.208,3.474,1.413,5.82a1.034,1.034,0,0,0-.11,1.228,7.034,7.034,0,0,0,4.618,3.533V15.82a.337.337,0,1,0,.675,0V13.88a.337.337,0,0,0-.294-.335,6.268,6.268,0,0,1-4.423-3.263.358.358,0,0,1,.115-.49l0,0,.014-.008a.358.358,0,0,1,.477.126c1.209,1.967,2.712,2.965,4.466,2.965s3.256-1,4.466-2.965a.357.357,0,0,1,.475-.127l.016.009,0,0a.358.358,0,0,1,.115.49A6.268,6.268,0,0,1,42.4,13.545a.337.337,0,0,0-.294.335v3.179a4.553,4.553,0,0,0,9.106,0V12.4l.028,0,.04,0,.124.009h.03c.044,0,.087,0,.131,0h.01c.044,0,.087,0,.131,0h.03l.124-.009.04,0,.028,0v4.654a5.244,5.244,0,0,1-1.44,3.615.337.337,0,1,0,.49.463A5.917,5.917,0,0,0,52.6,17.058V12.243A3.012,3.012,0,0,0,51.572,6.4ZM45.585,1.534c-.049.321-.789.594-1.139.541a.477.477,0,0,1-.33-.237.8.8,0,0,1-.1-.541c.057-.378.35-.66.639-.616a1.424,1.424,0,0,1,.642.349A.682.682,0,0,1,45.585,1.534ZM38.2,1.03A1.424,1.424,0,0,1,38.845.68a.4.4,0,0,1,.06,0,.675.675,0,0,1,.579.621.8.8,0,0,1-.1.541.477.477,0,0,1-.33.237c-.35.053-1.09-.22-1.139-.541A.682.682,0,0,1,38.2,1.03Z" transform="translate(-34.701 -0.001)" fill="#ff73ca"/>
        </g>
      </g>
      <g id="Group_2954" data-name="Group 2954" transform="translate(40.719 16.721)">
        <g id="Group_2953" data-name="Group 2953" transform="translate(0)">
          <path id="Path_8125" data-name="Path 8125" d="M178.1,376.921a.337.337,0,0,0-.47-.08,5.265,5.265,0,0,1-8.3-4.3.337.337,0,0,0-.675,0,5.94,5.94,0,0,0,9.369,4.853A.337.337,0,0,0,178.1,376.921Z" transform="translate(-168.653 -372.201)" fill="#ff73ca"/>
        </g>
      </g>
    </g>
  </g>
</svg>
