<svg xmlns="http://www.w3.org/2000/svg" width="54.727" height="54.727" viewBox="0 0 54.727 54.727">
  <g id="Group_2940" data-name="Group 2940" transform="translate(293 51)">
    <g id="Group_2910" data-name="Group 2910" transform="translate(16 -128)">
      <g id="Group_2906" data-name="Group 2906" transform="translate(-87)">
        <g id="Yoga" transform="translate(-58 -115)">
          <circle id="Background" cx="27.364" cy="27.364" r="27.364" transform="translate(-164 192)" fill="#fff"/>
        </g>
      </g>
    </g>
    <g id="heart" transform="translate(-345.269 -35.596)">
      <g id="Group_2920" data-name="Group 2920" transform="translate(74.92 12.24)">
        <g id="Group_2919" data-name="Group 2919">
          <path id="Path_8088" data-name="Path 8088" d="M167.443,268.334a8.979,8.979,0,0,1-2.281-2.221h.893a.35.35,0,1,0,0-.7h-1.341a8.357,8.357,0,0,1-.533-1.111,7.126,7.126,0,0,1-.507-2.168.35.35,0,0,0-.7.015,7.387,7.387,0,0,0,.426,2.056,13.2,13.2,0,0,0-.424,2.09.35.35,0,0,0,.3.391l.043,0a.35.35,0,0,0,.347-.307c.027-.219.091-.663.178-1.1.1.2.217.417.347.635a.35.35,0,0,0,.035.058,9.354,9.354,0,0,0,1.18,1.547,6.148,6.148,0,0,0,.022,1.556.35.35,0,0,0,.683-.154,3.509,3.509,0,0,1-.041-.762,10.105,10.105,0,0,0,.973.754.35.35,0,1,0,.395-.579Z" transform="translate(-162.974 -261.791)" fill="#e30000"/>
        </g>
      </g>
      <g id="Group_2922" data-name="Group 2922" transform="translate(70.601 0)">
        <g id="Group_2921" data-name="Group 2921" transform="translate(0 0)">
          <path id="Path_8089" data-name="Path 8089" d="M87.507,14.958c-.046-.265-.089-.516-.13-.766-.057-.348-.1-.629-.131-.883a7.687,7.687,0,0,1-.076-1.549A5.549,5.549,0,0,0,85.714,7.2a1.75,1.75,0,0,0-.52-3.452,12.7,12.7,0,0,0-1.556.237,5.779,5.779,0,0,0-.822-.766l.416-1.383a1.234,1.234,0,1,0-2.364-.712l-.322,1.069-.034-.007V1.234a1.234,1.234,0,0,0-2.469,0v.985l-.023.006-.333-1.106a1.234,1.234,0,1,0-2.364.712l.5,1.656a6.356,6.356,0,0,0-.732.852c-1.363-.025-2.56.009-2.795.017a1.75,1.75,0,0,0,.053,3.5h.058c.158-.005.336-.009.525-.013a7.524,7.524,0,0,0-1.453,4.687c0,.021,0,.042,0,.063s0,.043,0,.065a7.214,7.214,0,0,0,.151,1.44.35.35,0,1,0,.686-.14,6.515,6.515,0,0,1-.137-1.3c0-.033,0-.065,0-.1,0-.016,0-.032,0-.048a6.807,6.807,0,0,1,1.292-4.224c-.06.294-.086.483-.09.518a1.75,1.75,0,0,0,3.469.468l0-.02v0l0-.012v0l0-.015v0l0-.017V9.194l0-.021v0l0-.027h0l.012-.067V9.065l.006-.029,0-.013L76.9,9l0-.016.005-.027,0-.017.006-.028,0-.02.006-.028,0-.02.007-.03,0-.021.008-.034,0-.019.012-.052,0-.019.01-.04.006-.026L77,8.568,77,8.539l.008-.032.008-.03.008-.032.008-.031.009-.032.009-.032.009-.033.009-.033.01-.034.01-.034.01-.034.01-.034.012-.04.019-.062.011-.035.012-.038.009-.027.037,0,.05.005.1.01.044,0,.122.015h.01L77.653,8l.038.006.077.012.039.006.071.013.033.006L78,8.064a1.556,1.556,0,0,1,.933.546h0l.024.031q.027.035.053.072l.029.043.022.033a2.6,2.6,0,0,1,.257.544,4,4,0,0,1,.165.76,1.762,1.762,0,0,0,1.644,1.529l.1,0h0l.093,0,.04,0,.054,0,.043-.006.05-.007.043-.008.049-.009.042-.01.048-.012.041-.012.048-.015.04-.014.048-.018.039-.016.048-.021.037-.017.047-.024.036-.019.046-.026.034-.021.045-.029.033-.022.045-.033.031-.023.045-.037.028-.023.047-.043.022-.021q.034-.033.067-.068a1.738,1.738,0,0,0,.451-1.412q-.042-.316-.107-.62a7.526,7.526,0,0,1,1.022,1.491,3.428,3.428,0,0,1-1.108,1.52.35.35,0,0,0,.456.532A6.544,6.544,0,0,0,83.9,11.9a4.331,4.331,0,0,0,.366-.495,6.272,6.272,0,0,1,.329,2.6.35.35,0,0,0,.32.378h.029a.35.35,0,0,0,.349-.322,7.065,7.065,0,0,0,.011-1,1.763,1.763,0,0,1,.283.263.35.35,0,1,0,.57-.407,4.784,4.784,0,0,0-.977-.815,7.228,7.228,0,0,0-.614-1.79.355.355,0,0,0-.024-.049,7.866,7.866,0,0,0-.6-1,8.365,8.365,0,0,0-1.186-1.344,8.61,8.61,0,0,1,1.528-.485l.066-.015.009,0c.172-.037.326-.066.452-.088a4.8,4.8,0,0,1,1.667,4.384,8.338,8.338,0,0,0,.079,1.693c.034.262.076.551.135.907.041.253.085.5.131.771a19.24,19.24,0,0,1,.411,4.007.35.35,0,0,0,.333.366h.017a.35.35,0,0,0,.35-.334A19.769,19.769,0,0,0,87.507,14.958ZM73.961,6.536h0l-.039.109-.016.046-.038.113-.008.025q-.04.12-.078.242v0l-.018.056h-.041c-.48,0-.963.01-1.338.022a1.05,1.05,0,0,1-.066-2.1c.171-.005.86-.025,1.751-.025.185,0,.378,0,.577,0q-.132.232-.254.48l0,0q-.041.083-.08.168t-.071.157l-.025.056-.044.1-.029.071-.036.087-.032.079-.03.078Q74,6.424,73.961,6.536Zm10.9.068-.019,0a10.111,10.111,0,0,0-2.435.693l-.013.006-.1.045-.029.014-.081.04-.034.017-.078.041-.031.017-.1.059h0l-.017.011-.012.008L81.9,7.57l-.013.011-.01.01-.014.015-.008.009-.014.018,0,0,0,0-.012.019-.006.01L81.8,7.69,81.8,7.7l-.006.017-.005.015,0,.015q0,.015-.007.029c0,.006,0,.012,0,.018s0,.009,0,.013,0,.011,0,.017,0,0,0,0,0,.008,0,.012,0,.014,0,.021,0,.007,0,.011,0,.014,0,.021l0,.012s0,.009,0,.014l0,.006,0,.014.005.017.006.016,0,.009c.078.176.147.358.206.539a6.807,6.807,0,0,1,.273,1.22,1.053,1.053,0,0,1,.009.115,1.04,1.04,0,0,1-.279.729A1.056,1.056,0,0,1,80.183,10a4.678,4.678,0,0,0-.2-.9,3.088,3.088,0,0,0-.473-.9L79.507,8.2l-.015-.019,0,0-.005-.007a2.242,2.242,0,0,0-1.331-.792l-.1-.021-.026,0-.111-.02h-.006l-.114-.018-.03,0-.128-.018h-.011L77.5,7.275l-.032,0-.03,0,.007-.017c.02-.046.041-.091.062-.135.738-1.554,1.517-1.554,1.773-1.554l.088,0a4.369,4.369,0,0,1,.765.4.35.35,0,0,0,.39,0c.086-.059.176-.116.268-.172l.058-.035.087-.051.056-.032.106-.058.042-.023.14-.073.064-.032.089-.043.071-.034.089-.041.07-.032.116-.05.041-.018a.35.35,0,1,0-.27-.646c-.081.034-.161.069-.239.1l-.037.017q-.117.053-.23.109l-.016.008q-.106.053-.209.107l-.034.018q-.105.057-.207.115l-.013.007a3.082,3.082,0,0,0-1.138-.242l-.146,0a2.068,2.068,0,0,0-.707.12,3.263,3.263,0,0,0-1.7,1.834c-.027.056-.053.114-.078.172l0,.007-.052.12-.006.013,0,.008c-.014.033-.026.065-.039.1l-.026.066,0,.01q-.027.07-.053.14h0v0h0a9.564,9.564,0,0,0-.337,1.142l-.006.025-.008.036,0,.018-.021.1,0,.02-.019.1-.01.052-.007.039c-.01.053-.017.1-.023.13l0,.024c0,.023-.006.039-.007.046v0a1.051,1.051,0,0,1-1.038.909,1.063,1.063,0,0,1-.141-.009,1.051,1.051,0,0,1-.9-1.181v-.01h0a10.742,10.742,0,0,1,.287-1.312c.08-.286.169-.563.266-.829h0q.034-.094.07-.186l.006-.016q.035-.091.072-.179l.012-.029q.03-.072.061-.143l.019-.044q.037-.084.075-.166t.073-.154l.035-.07.039-.078.047-.09.028-.053.055-.1.022-.04.06-.1.019-.031.064-.106.016-.026.068-.108L75.485,5l.074-.111a5.638,5.638,0,0,1,.895-1.035.35.35,0,0,0,.1-.362L75.994,1.63a.534.534,0,1,1,1.022-.308l.434,1.443a.35.35,0,0,0,.451.23,4.119,4.119,0,0,1,.56-.152.35.35,0,0,0,.283-.344V1.234a.534.534,0,1,1,1.068,0V2.476a.35.35,0,0,0,.3.347,5.242,5.242,0,0,1,.586.121.35.35,0,0,0,.426-.237l.417-1.384a.534.534,0,0,1,1.022.308L82.073,3.25a.35.35,0,0,0,.136.389,4.954,4.954,0,0,1,.644.532l-.006,0-.135.038a.35.35,0,1,0,.2.673l.157-.044.018,0c.107-.029.217-.058.327-.085l.007,0,.162-.038a12.142,12.142,0,0,1,1.67-.269,1.05,1.05,0,0,1,.165,2.093C85.283,6.545,85.092,6.568,84.86,6.6Z" transform="translate(-70.601 0)" fill="#e30000"/>
        </g>
      </g>
      <g id="Group_2924" data-name="Group 2924" transform="translate(71.904 14.703)">
        <g id="Group_2923" data-name="Group 2923" transform="translate(0)">
          <path id="Path_8090" data-name="Path 8090" d="M114.067,319.717a.35.35,0,0,0-.421.26c-.406,1.719-1.619,2.667-3.818,2.983-4.262.613-9.238-3.926-10.675-8.239a.35.35,0,0,0-.665.221,14.49,14.49,0,0,0,4.524,6.306,9.813,9.813,0,0,0,6.024,2.468,6.261,6.261,0,0,0,.892-.063A5.906,5.906,0,0,0,113,322.411a4.2,4.2,0,0,0,1.328-2.273A.35.35,0,0,0,114.067,319.717Z" transform="translate(-98.47 -314.482)" fill="#e30000"/>
        </g>
      </g>
    </g>
  </g>
</svg>
