<svg xmlns="http://www.w3.org/2000/svg" width="54.727" height="54.727" viewBox="0 0 54.727 54.727">
  <g id="Group_2941" data-name="Group 2941" transform="translate(384 51)">
    <g id="Group_2909" data-name="Group 2909" transform="translate(-75 -128)">
      <g id="Group_2906" data-name="Group 2906" transform="translate(-87)">
        <g id="Yoga" transform="translate(-58 -115)">
          <circle id="Background" cx="27.364" cy="27.364" r="27.364" transform="translate(-164 192)" fill="#fff"/>
        </g>
      </g>
    </g>
    <g id="house" transform="translate(-366.203 -35.596)">
      <path id="Path_8085" data-name="Path 8085" d="M128.379,111.867h-3.32a.547.547,0,0,0-.547.547v5.423a.548.548,0,0,0,.547.547h3.32a.548.548,0,0,0,.547-.547v-5.423A.547.547,0,0,0,128.379,111.867Zm-1.988,5.861h-1.222v-1.342h1.222Zm0-2h-1.222v-1.207h1.222Zm0-1.864h-1.222v-1.342h1.222Zm1.879,3.862h-1.222v-1.342h1.222Zm0-2h-1.222v-1.207h1.222Zm0-1.864h-1.222v-1.342h1.222Zm0,0" transform="translate(-119.063 -106.972)" fill="#00686c"/>
      <path id="Path_8086" data-name="Path 8086" d="M306.3,411.3a.328.328,0,0,0-.328.328v.788a.328.328,0,0,0,.656,0v-.788A.328.328,0,0,0,306.3,411.3Zm0,0" transform="translate(-292.583 -393.3)" fill="#00686c"/>
      <path id="Path_8087" data-name="Path 8087" d="M22.4,14.683a.436.436,0,0,0-.166-.289l-6.953-5.38a.871.871,0,0,0-1.066,0l-1.052.814V8.886a.328.328,0,1,0-.656,0v1.45L7.264,14.394a.438.438,0,0,0-.079.613l.532.692a.437.437,0,0,0,.613.079l6.419-4.967L19.6,14.565V21.4H16.959v-.615a.328.328,0,1,0-.656,0V21.4H13.2V16.375H16.3v2.87a.328.328,0,0,0,.656,0V16.266a.548.548,0,0,0-.547-.547H13.087a.548.548,0,0,0-.547.547V21.4H10.046v-.9a.547.547,0,0,0-.547-.547H9.185a2.058,2.058,0,0,0-3.6-1.722,1.54,1.54,0,0,0-.81-.032A2.033,2.033,0,0,0,3.031,17.2a1.966,1.966,0,0,0-.228.014V6.229L7.656,2.475l4.852,3.755V7.354a.328.328,0,1,0,.656,0V6.737l.911.7a.437.437,0,0,0,.613-.079l0,0,.51-.688,0,0a.415.415,0,0,0,.1-.318.434.434,0,0,0-.166-.289L8.189.678a.871.871,0,0,0-1.066,0L5.214,2.155V1.742A.547.547,0,0,0,5.669,1.2V.547A.548.548,0,0,0,5.122,0H2.463a.548.548,0,0,0-.547.547V1.2a.547.547,0,0,0,.455.539V4.355l-2.2,1.7A.439.439,0,0,0,0,6.348a.434.434,0,0,0,.087.323l.532.692a.434.434,0,0,0,.346.17.44.44,0,0,0,.267-.091l.911-.7V17.408a2.032,2.032,0,0,0-1.071,1.311,1.307,1.307,0,0,0-.835,1.217,1.322,1.322,0,0,0,.012.177.544.544,0,0,0-.169.395v1a.548.548,0,0,0,.547.547H21.209a.328.328,0,0,0,0-.656h-.951v-6.33l.911.7a.439.439,0,0,0,.267.091.433.433,0,0,0,.346-.171l0,0,.51-.689,0,0A.416.416,0,0,0,22.4,14.683ZM7.166,18.154A1.4,1.4,0,0,1,8.51,19.961H6.638a1.529,1.529,0,0,0-.472-1.384A1.408,1.408,0,0,1,7.166,18.154ZM2.572.656H5.013v.437H2.572ZM4.558,1.75v.913L3.028,3.847V1.75ZM1.01,6.788.745,6.443,7.524,1.2a.215.215,0,0,1,.263,0l6.77,5.239-.258.349L7.857,1.8a.328.328,0,0,0-.4,0ZM9.39,21.4H.741v-.786H3.764a.328.328,0,1,0,0-.656H.9c0-.008,0-.017,0-.025a.648.648,0,0,1,.523-.636.328.328,0,0,0,.262-.276A1.362,1.362,0,0,1,4.3,18.73a.328.328,0,0,0,.446.178.878.878,0,0,1,1.216,1.052H5.339a.328.328,0,1,0,0,.656H9.39Zm12-6.282-6.443-4.985a.328.328,0,0,0-.4,0L8.1,15.124l-.265-.344,6.78-5.246a.214.214,0,0,1,.263,0l6.77,5.239Zm0,0" transform="translate(0)" fill="#00686c"/>
    </g>
  </g>
</svg>
