<svg xmlns="http://www.w3.org/2000/svg" width="54.727" height="54.727" viewBox="0 0 54.727 54.727">
  <g id="Hypertension" transform="translate(259 -192)">
    <circle id="Background" cx="27.364" cy="27.364" r="27.364" transform="translate(-259 192)" fill="#fff"/>
    <g id="hypertension_1_" data-name="hypertension (1)" transform="translate(-249.569 206)">
      <path id="Path_8051" data-name="Path 8051" d="M308.3,5.435a5.435,5.435,0,1,0-6.6,5.309v.514a1.166,1.166,0,0,0,.776,1.1v6.355h.776V12.355a1.166,1.166,0,0,0,.776-1.1v-.514A5.444,5.444,0,0,0,308.3,5.435Zm-.793-.388h-.78a3.889,3.889,0,0,0-3.474-3.474V.793A4.666,4.666,0,0,1,307.508,5.046ZM302.866,8.54a3.106,3.106,0,1,1,3.106-3.106A3.109,3.109,0,0,1,302.866,8.54ZM302.477.793v.78A3.889,3.889,0,0,0,299,5.046h-.78A4.666,4.666,0,0,1,302.477.793Zm-4.254,5.03H299A3.889,3.889,0,0,0,302.477,9.3v.78A4.666,4.666,0,0,1,298.224,5.823Zm5.03,5.435a.388.388,0,1,1-.776,0v-.4c.128.009.258.014.388.014s.26,0,.388-.014Zm0-1.181V9.3a3.889,3.889,0,0,0,3.474-3.474h.78A4.666,4.666,0,0,1,303.254,10.077Z" transform="translate(-277.731 0)" fill="#f7be65"/>
      <path id="Path_8052" data-name="Path 8052" d="M382.26,83.665a1.165,1.165,0,1,0-.663,1.051l.724.724.549-.549-.724-.724A1.158,1.158,0,0,0,382.26,83.665Zm-1.165.388a.388.388,0,1,1,.388-.388A.389.389,0,0,1,381.1,84.053Z" transform="translate(-355.961 -78.321)" fill="#f7be65"/>
      <path id="Path_8053" data-name="Path 8053" d="M182.255,287.884l-1.752-1.823-.976,1.346h-.967v.776h1.363l.664-.915,1.733,1.8,1.258-1.63h.974v-.776H183.2Z" transform="translate(-164.999 -271.57)" fill="#f7be65"/>
      <path id="Path_8054" data-name="Path 8054" d="M279.691,241.758h.776v.776h-.776Z" transform="translate(-260.898 -229.488)" fill="#f7be65"/>
      <path id="Path_8055" data-name="Path 8055" d="M309.69,256.759h.776v.776h-.776Z" transform="translate(-289.345 -243.728)" fill="#f7be65"/>
      <path id="Path_8056" data-name="Path 8056" d="M394.931,376.5h.776v.776h-.776Z" transform="translate(-370.179 -357.392)" fill="#f7be65" stroke="#f7be65" stroke-width="0.5"/>
      <path id="Path_8057" data-name="Path 8057" d="M24.747,21.4a3.905,3.905,0,0,1-7.8.195l.255-.175c2.418-1.66,5.729-3.933,5.729-7.2a3.487,3.487,0,0,0-2.418-3.478,3.625,3.625,0,0,0-3.572.987V4.6a4.679,4.679,0,0,0-9.356,0V15.983a1.154,1.154,0,0,0-1.163,1.143v.849a4.462,4.462,0,0,0-1.854,3.779C4.569,24.1,6.1,26,7.973,26s3.4-1.905,3.4-4.247a4.462,4.462,0,0,0-1.854-3.779v-.849a1.154,1.154,0,0,0-1.163-1.143V4.6a3.9,3.9,0,0,1,7.805,0v7.141a3.626,3.626,0,0,0-3.572-.987,3.487,3.487,0,0,0-2.418,3.478,6.045,6.045,0,0,0,1.955,4.2l.565-.521a5.335,5.335,0,0,1-1.746-3.677,2.74,2.74,0,0,1,1.868-2.75,3.154,3.154,0,0,1,3.412,1.528l.322.47.322-.47a3.154,3.154,0,0,1,3.412-1.528,2.74,2.74,0,0,1,1.868,2.75,5.367,5.367,0,0,1-1.78,3.714A23.381,23.381,0,0,1,16.758,20.8l-.2.14-.2-.139a27.771,27.771,0,0,1-3.122-2.374l-.531.555a28.373,28.373,0,0,0,3.209,2.443l.263.181a4.68,4.68,0,0,0,9.351-.2v-.762h-.775ZM10.6,21.753c0,1.922-1.179,3.485-2.629,3.485s-2.629-1.563-2.629-3.485,1.179-3.485,2.629-3.485S10.6,19.832,10.6,21.753ZM8.749,17.126v.493a2.73,2.73,0,0,0-1.551,0v-.493a.385.385,0,0,1,.388-.381h.775A.385.385,0,0,1,8.749,17.126Z" transform="translate(0 0)" fill="#f7be65" stroke="#f7be65" stroke-width="0.5"/>
    </g>
  </g>
</svg>
