<svg xmlns="http://www.w3.org/2000/svg" width="54.727" height="54.727" viewBox="0 0 54.727 54.727">
  <g id="Group_2945" data-name="Group 2945" transform="translate(294 149)">
    <g id="Group_2914" data-name="Group 2914" transform="translate(15 -226)">
      <g id="Group_2906" data-name="Group 2906" transform="translate(-87)">
        <g id="Yoga" transform="translate(-58 -115)">
          <circle id="Background" cx="27.364" cy="27.364" r="27.364" transform="translate(-164 192)" fill="#fff"/>
        </g>
      </g>
    </g>
    <g id="immune" transform="translate(-280.545 -133.838)">
      <g id="Layer_6_copy_4" data-name="Layer 6 copy 4" transform="translate(3.408 2.895)">
        <path id="Path_8115" data-name="Path 8115" d="M24.114,12.507a1.218,1.218,0,0,0-1.21.059,4.583,4.583,0,0,1-.835.321,5.045,5.045,0,0,0-.756-.731,8.2,8.2,0,0,1,.451-1.415,1.129,1.129,0,0,0,0-1.142.8.8,0,0,0-.494-.341,21.927,21.927,0,0,0,0-2.621.334.334,0,0,0-.212-.289L12.482,2.919a.35.35,0,0,0-.253,0L3.65,6.355a.334.334,0,0,0-.212.289,26.187,26.187,0,0,0,.7,7.4c1.269,5.172,4.064,8.669,8.1,10.114a.341.341,0,0,0,.115.018.321.321,0,0,0,.113-.018,11.288,11.288,0,0,0,4.68-3.2c.072.018.144.036.226.05a5.237,5.237,0,0,1,.341,1,.964.964,0,0,0,.946.862,1.061,1.061,0,0,0,.657-.226.944.944,0,0,0,.343-.9,2.885,2.885,0,0,1,.025-.865,5.172,5.172,0,0,0,.614-.226,4.948,4.948,0,0,0,1.221-.783,5.644,5.644,0,0,1,.808.612,1.014,1.014,0,0,0,.727.334.953.953,0,0,0,.21-.025.865.865,0,0,0,.621-.6.9.9,0,0,0-.248-.885,4.271,4.271,0,0,1-.777-1.33c.016-.038.034-.074.05-.113A4.967,4.967,0,0,0,23,14.608a5.885,5.885,0,0,1,.5-.37,1.409,1.409,0,0,0,.9-1.093.677.677,0,0,0-.289-.639ZM21.1,9.917a.131.131,0,0,1,.108.059.5.5,0,0,1-.054.476,8.983,8.983,0,0,0-.451,1.3,5.118,5.118,0,0,0-.677-.327l-.061-.02a5.592,5.592,0,0,0,.9-1.255C20.925,9.985,21.031,9.917,21.1,9.917Zm-8.75,13.556C3.871,20.331,4.025,8.61,4.095,6.894l8.251-3.3,8.269,3.3a24.991,24.991,0,0,1-.043,2.537,1.208,1.208,0,0,0-.325.422,5.626,5.626,0,0,1-1.032,1.354h0a21.119,21.119,0,0,0,.111-3.386.343.343,0,0,0-.212-.291L12.482,4.867a.327.327,0,0,0-.253,0L5.612,7.513A.343.343,0,0,0,5.4,7.8a21.977,21.977,0,0,0,.544,5.967c.984,4.17,3.161,6.969,6.3,8.091a.343.343,0,0,0,.106.02.323.323,0,0,0,.113-.02,7.992,7.992,0,0,0,1.016-.431.858.858,0,0,0,.409.246.838.838,0,0,0,.21.027.95.95,0,0,0,.677-.307,4.42,4.42,0,0,1,1.289-.815c.126.063.257.117.388.169A10.491,10.491,0,0,1,12.346,23.474Zm4.176-12.051a5.52,5.52,0,0,1-1.167-.98,1.018,1.018,0,0,0-.953-.418,1.129,1.129,0,0,0-.874.677.991.991,0,0,0,.144,1.02,3.973,3.973,0,0,1,.6,1.377,4.991,4.991,0,0,0-.691,1.253c-.052.14-.1.282-.135.422a6.292,6.292,0,0,1-1.355.144,1.036,1.036,0,0,0-.971.415.919.919,0,0,0-.065.917.959.959,0,0,0,.84.521,4.47,4.47,0,0,1,1.508.465,4.985,4.985,0,0,0,.874,1.862,5.984,5.984,0,0,1-.7,1.009,1.061,1.061,0,0,0-.323.677,7.838,7.838,0,0,1-.9.4c-6.389-2.4-6.335-11.608-6.28-13.121l6.28-2.517,6.3,2.517a21.869,21.869,0,0,1-.129,3.054,4.967,4.967,0,0,0-1.993.307Zm-3.246,5.025a4.585,4.585,0,0,0-1.355-.352.312.312,0,0,1-.253-.142.244.244,0,0,1,.02-.242.384.384,0,0,1,.372-.124,7.294,7.294,0,0,0,1.248-.1,4.917,4.917,0,0,0-.034.964Zm5.73,5.4a.269.269,0,0,1-.095.271.375.375,0,0,1-.354.059.316.316,0,0,1-.181-.282,6.108,6.108,0,0,0-.244-.8h.124A4.822,4.822,0,0,0,19,21.031a3.423,3.423,0,0,0,.007.813ZM23.7,13.229a1.192,1.192,0,0,1-.5.4l-.027.014a6.393,6.393,0,0,0-1.871,1.876c-.041.068-.084.135-.122.205a.339.339,0,0,0,.133.451.33.33,0,0,0,.163.043.339.339,0,0,0,.3-.176,4.714,4.714,0,0,1,.677-.93,4.262,4.262,0,0,1,.061,1.718.338.338,0,0,0-.637.221c0,.014.025.093.059.212a6.538,6.538,0,0,0,1.242,2.5.244.244,0,0,1,.086.226.194.194,0,0,1-.135.129.327.327,0,0,1-.3-.135,4.932,4.932,0,0,0-2.271-1.235,1.7,1.7,0,0,0-.321-.014.339.339,0,1,0,.041.677,1.549,1.549,0,0,1,.6.108,4.269,4.269,0,0,1-3.883.693c.122-.041.2-.063.2-.063a.339.339,0,0,0-.183-.652,2.136,2.136,0,0,0-.205.063,6.851,6.851,0,0,0-2.524,1.355.257.257,0,0,1-.237.1.183.183,0,0,1-.124-.126c-.025-.09.02-.2.138-.321a5.081,5.081,0,0,0,1.224-2.357,1.833,1.833,0,0,0,0-.314.339.339,0,1,0-.677.045,1.307,1.307,0,0,1-.041.4,5.115,5.115,0,0,1-.251-.465,4.289,4.289,0,0,1,.144-3.838c.063.4.084.677.086.691a.336.336,0,0,0,.336.314H14.9a.339.339,0,0,0,.314-.363,1.6,1.6,0,0,0-.025-.262,7.087,7.087,0,0,0-1-3.118.316.316,0,0,1-.045-.343.451.451,0,0,1,.339-.269.354.354,0,0,1,.336.176,5.045,5.045,0,0,0,2.522,1.58,1.928,1.928,0,0,0,.361.02.339.339,0,0,0,.095-.657,4.273,4.273,0,0,1,3.47,1.215,2.908,2.908,0,0,1-.939-.061.34.34,0,1,0-.2.65,2.292,2.292,0,0,0,.28.056,4.682,4.682,0,0,0,2.786-.5c.334-.167.517-.122.537-.1S23.749,13.143,23.7,13.229ZM8.933,15.911a.339.339,0,0,1-.61.3,16.384,16.384,0,0,1-1.355-5.143.341.341,0,1,1,.677-.077A15.611,15.611,0,0,0,8.933,15.911Zm-2.066-6.1c-.023-.42-.025-.677-.025-.677a.339.339,0,0,1,.677,0s0,.244.023.643a.336.336,0,0,1-.321.361H7.2a.336.336,0,0,1-.336-.321Z" transform="translate(-3.408 -2.895)" fill="#00ca8f"/>
      </g>
    </g>
  </g>
</svg>
