<svg xmlns="http://www.w3.org/2000/svg" width="54.727" height="54.727" viewBox="0 0 54.727 54.727">
  <g id="Group_2944" data-name="Group 2944" transform="translate(384 149)">
    <g id="Group_2913" data-name="Group 2913" transform="translate(-75 -226)">
      <g id="Group_2906" data-name="Group 2906" transform="translate(-87)">
        <g id="Yoga" transform="translate(-58 -115)">
          <circle id="Background" cx="27.364" cy="27.364" r="27.364" transform="translate(-164 192)" fill="#fff"/>
        </g>
      </g>
    </g>
    <g id="infected" transform="translate(-454.561 -134.218)">
      <g id="Group_2938" data-name="Group 2938" transform="translate(89.968)">
        <g id="Group_2937" data-name="Group 2937" transform="translate(0)">
          <path id="infected-2" data-name="infected" d="M2524.62-3208.278a1.217,1.217,0,0,0,.92.415h.833a1.226,1.226,0,0,0,1.226-1.226v-5.142a.306.306,0,0,0-.306-.307.307.307,0,0,0-.307.307v5.142a.613.613,0,0,1-.613.613h-.833a.61.61,0,0,1-.433-.18.612.612,0,0,1-.18-.433v-5.824a.307.307,0,0,0-.307-.307.307.307,0,0,0-.307.307v5.824a.613.613,0,0,1-.613.613h-.834a.613.613,0,0,1-.613-.613V-3223.5a.306.306,0,0,0-.306-.307.307.307,0,0,0-.307.307v14.408a1.226,1.226,0,0,0,1.226,1.226h.834A1.225,1.225,0,0,0,2524.62-3208.278Zm3.673-17.748.232,1.485a4.588,4.588,0,0,0-2.781,2.088l-.555-.281.047-.088a.306.306,0,0,0-.129-.414.307.307,0,0,0-.414.129l-.376.716a.306.306,0,0,0,.129.414.306.306,0,0,0,.414-.129l.045-.085.57.29a4.521,4.521,0,0,0-.331,1.7,4.5,4.5,0,0,0,.567,2.2l-1.082.73-.045-.085a.307.307,0,0,0-.415-.126.307.307,0,0,0-.127.414l.43.807a.307.307,0,0,0,.415.126.307.307,0,0,0,.126-.415l-.094-.178,1.126-.76a4.435,4.435,0,0,0,.936.922.306.306,0,0,0-.166.128.307.307,0,0,0,.1.423l.36.228a.306.306,0,0,0,.423-.1.307.307,0,0,0,.037-.244,4.274,4.274,0,0,0,1.476.376v1.335h-.236a.307.307,0,0,0-.307.307.307.307,0,0,0,.307.307h1.083a.307.307,0,0,0,.307-.307.307.307,0,0,0-.307-.307h-.235v-1.335a4.31,4.31,0,0,0,2.634-1.152l.09.087-.031.034a.306.306,0,0,0,.018.433.307.307,0,0,0,.433-.018l.437-.475a.307.307,0,0,0-.018-.433.306.306,0,0,0-.423.008l-.086-.084a4.491,4.491,0,0,0,.673-1.131l.9.309-.037.122a.307.307,0,0,0,.205.382.306.306,0,0,0,.382-.205l.244-.807a.308.308,0,0,0-.205-.382.307.307,0,0,0-.382.205l-.03.1-.881-.3a4.536,4.536,0,0,0,.143-1.134,4.5,4.5,0,0,0-.567-2.2l1.012-.682.072.116a.307.307,0,0,0,.422.1.307.307,0,0,0,.1-.422l-.474-.765a.306.306,0,0,0-.422-.1.306.306,0,0,0-.1.422l.079.128-1.023.69a4.445,4.445,0,0,0-1.19-1.093l.115-.226a.306.306,0,0,0,.375-.143.306.306,0,0,0-.125-.415l-.473-.254a.306.306,0,0,0-.415.125.307.307,0,0,0,.1.4l-.116.227a4.269,4.269,0,0,0-1.736-.366c-.049,0-.3.01-.383.017l-.233-1.495.425-.075a.307.307,0,0,0,.249-.355.307.307,0,0,0-.355-.249l-1.437.254a.306.306,0,0,0-.248.355.307.307,0,0,0,.355.249Zm-1.866-.625h-4.715a2.746,2.746,0,0,0-2.744,2.745v7.066a1.226,1.226,0,0,0,1.226,1.226h.579a.307.307,0,0,0,.307-.307.307.307,0,0,0-.307-.306h-.579a.613.613,0,0,1-.613-.613v-7.066a2.132,2.132,0,0,1,2.131-2.132h4.715a.306.306,0,0,0,.307-.306A.306.306,0,0,0,2526.428-3226.651Zm3.085,2.609a4.057,4.057,0,0,0-3.757,3.845,3.8,3.8,0,0,0,3.757,3.845,3.8,3.8,0,0,0,3.756-3.845A3.86,3.86,0,0,0,2529.513-3224.042Zm.542,4.923a.991.991,0,0,0-.984,1,.991.991,0,0,0,.984,1,.991.991,0,0,0,.983-1A.991.991,0,0,0,2530.054-3219.119Zm0,.613a.378.378,0,0,1,.37.385.378.378,0,0,1-.37.385.378.378,0,0,1-.37-.385A.378.378,0,0,1,2530.054-3218.506Zm-2.7-2.551a.861.861,0,0,0-.854.866.861.861,0,0,0,.854.866.861.861,0,0,0,.854-.866A.861.861,0,0,0,2527.352-3221.057Zm0,.613a.248.248,0,0,1,.241.253.247.247,0,0,1-.241.253.247.247,0,0,1-.241-.253A.248.248,0,0,1,2527.352-3220.444Zm3.379-2.474a1.327,1.327,0,0,0-1.314,1.337,1.326,1.326,0,0,0,1.314,1.337,1.327,1.327,0,0,0,1.315-1.337A1.327,1.327,0,0,0,2530.731-3222.917Zm0,.613a.713.713,0,0,1,.7.724.713.713,0,0,1-.7.724.713.713,0,0,1-.7-.724A.713.713,0,0,1,2530.731-3222.3Zm-6.111-10.7a2.982,2.982,0,0,0-2.98,2.98,2.981,2.981,0,0,0,2.98,2.979,2.98,2.98,0,0,0,2.979-2.979A2.981,2.981,0,0,0,2524.62-3233Zm0,.613a2.367,2.367,0,0,1,2.366,2.367,2.367,2.367,0,0,1-2.366,2.366,2.368,2.368,0,0,1-2.367-2.366A2.368,2.368,0,0,1,2524.62-3232.387Z" transform="translate(-2518.968 3233)" fill="#ff8787" fill-rule="evenodd"/>
        </g>
      </g>
    </g>
  </g>
</svg>
