<svg xmlns="http://www.w3.org/2000/svg" width="54.727" height="54.727" viewBox="0 0 54.727 54.727"><g transform="translate(222 -77)"><g transform="translate(-58 -115)"><circle cx="27.364" cy="27.364" r="27.364" transform="translate(-164 192)" fill="#fff"/></g><g transform="translate(-246.72 91.363)"><g transform="translate(40.903 0)"><g transform="translate(0 0)"><path d="M62.51,8.358a9.128,9.128,0,0,0-4-6.861A8.889,8.889,0,0,0,54.7.1a14.179,14.179,0,0,0-4,.1,11.824,11.824,0,0,0-2.854.773,8.264,8.264,0,0,0-4.283,4.035,6.706,6.706,0,0,0-.537,4.24l.005.025a3.248,3.248,0,0,1,.077,1.462,4.681,4.681,0,0,1-.958,1.741A6.778,6.778,0,0,0,41,14.333a1.331,1.331,0,0,0-.083.7,1.032,1.032,0,0,0,.392.61,1.469,1.469,0,0,0,.363.2,2.362,2.362,0,0,0,.587.132c.326.04.532.074.642.214a3.09,3.09,0,0,1,.2,2.054,7.653,7.653,0,0,0-.058,1.115,2.765,2.765,0,0,0,2.989,2.88,8.985,8.985,0,0,0,2.9-.39.4.4,0,0,1,.377.069.414.414,0,0,1,.157.358l-.16,3.321a.383.383,0,0,0,.1.281A.375.375,0,0,0,49.69,26h1.779a.381.381,0,0,0,0-.762H50.086l.141-2.916a1.181,1.181,0,0,0-.445-1,1.156,1.156,0,0,0-1.068-.2,8.2,8.2,0,0,1-2.651.355,2.025,2.025,0,0,1-2.258-2.16,7.163,7.163,0,0,1,.055-1,3.614,3.614,0,0,0-.364-2.6,1.755,1.755,0,0,0-1.268-.513c-.25-.034-.534-.148-.568-.321a.669.669,0,0,1,.054-.3,6.108,6.108,0,0,1,1.028-1.642,5.351,5.351,0,0,0,1.1-2.037,3.938,3.938,0,0,0-.071-1.79L43.766,9.1a5.934,5.934,0,0,1,.475-3.751,7.517,7.517,0,0,1,3.9-3.67A11.091,11.091,0,0,1,50.814.952c3.066-.463,5.379-.089,7.28,1.18a8.36,8.36,0,0,1,3.665,6.284,8.275,8.275,0,0,1-.716,4.082,14.148,14.148,0,0,1-1.285,2.122c-.227.33-.454.659-.668,1a4.749,4.749,0,0,0-.96,2.946c.056.786.608,5.25.786,6.675H53.225a.381.381,0,0,0,0,.762h6.117a.375.375,0,0,0,.283-.129.383.383,0,0,0,.091-.3c-.008-.061-.771-6.165-.835-7.063a3.973,3.973,0,0,1,.844-2.482c.207-.328.432-.654.651-.973a14.723,14.723,0,0,0,1.352-2.24,9.035,9.035,0,0,0,.782-4.456Z" transform="translate(-40.903 0)" fill="#2d31da"/><path d="M157.56,43.349a6.829,6.829,0,1,0-6.829,6.829,6.837,6.837,0,0,0,6.829-6.829Zm-6.829,6.075a6.075,6.075,0,1,1,6.075-6.075A6.082,6.082,0,0,1,150.731,49.424Z" transform="translate(-138.722 -34.683)" fill="#2d31da"/><path d="M200.342,95.59a3.232,3.232,0,0,0,.451-.731,5.471,5.471,0,0,0,.44-1.864,8.518,8.518,0,0,0-.04-1.371.57.57,0,0,0-.68-.507,8.651,8.651,0,0,0-1.326.348,6.714,6.714,0,0,0-.676.295c-.074-.131-.152-.262-.235-.391a9.641,9.641,0,0,0-.958-1.2.595.595,0,0,0-.885,0,9.728,9.728,0,0,0-.957,1.2q-.129.2-.241.4a6.71,6.71,0,0,0-.691-.3,8.664,8.664,0,0,0-1.326-.348.57.57,0,0,0-.68.508,8.47,8.47,0,0,0-.04,1.371,4.775,4.775,0,0,0,.882,2.6c-.552.256-.9.6-.9,1.035,0,.264.136.648.783.979a.613.613,0,0,0,.479.036l.435-.147.111.217a.654.654,0,0,0,.462.354,11.9,11.9,0,0,0,2.115.18c2.112,0,4.386-.507,4.386-1.62C201.252,96.19,200.9,95.846,200.342,95.59Zm-5.007-2.078a5.652,5.652,0,0,1,.775-1.735,8.1,8.1,0,0,1,.767-.976l.047.052a6.626,6.626,0,0,1,.718.925,6.064,6.064,0,0,1,.575,1.124.377.377,0,1,0,.7-.268c-.025-.066-.052-.132-.08-.2a6,6,0,0,1,.608-.264,6.948,6.948,0,0,1,1.011-.275l0,.015a5.842,5.842,0,0,1,.019,1.031h0c-.043.621-.293,2.535-1.715,2.789a2.571,2.571,0,0,0,.444-1.177.377.377,0,1,0-.748-.093,1.849,1.849,0,0,1-.823,1.339,1.481,1.481,0,0,1-1.525,0A2,2,0,0,1,195.335,93.511Zm-2.084-.57a5.843,5.843,0,0,1,.019-1.03l0-.015a6.949,6.949,0,0,1,1.011.275,5.957,5.957,0,0,1,.619.271,5.515,5.515,0,0,0-.3.9,2.867,2.867,0,0,0,.384,2.4C193.548,95.495,193.294,93.566,193.251,92.942Zm6.338,4.205a9.6,9.6,0,0,1-2.723.347,11.219,11.219,0,0,1-1.923-.158l-.132-.258a.639.639,0,0,0-.771-.332l-.483.163c-.267-.146-.323-.258-.323-.282,0-.044.141-.256.767-.472a2.358,2.358,0,0,0,1.286.357,1.762,1.762,0,0,0,.454-.058,2.234,2.234,0,0,0,2.264,0,1.588,1.588,0,0,0,.359.053,2.375,2.375,0,0,0,1.347-.363c.643.219.787.435.787.479S200.336,96.916,199.589,97.147Z" transform="translate(-184.857 -85.376)" fill="#2d31da"/></g></g></g></g></svg>