<svg xmlns="http://www.w3.org/2000/svg" width="54.727" height="54.727" viewBox="0 0 54.727 54.727">
  <g id="Group_2956" data-name="Group 2956" transform="translate(473.864 242.273)">
    <g id="Group_2916" data-name="Group 2916" transform="translate(-164.864 -319.273)">
      <g id="Group_2906" data-name="Group 2906" transform="translate(-87)">
        <g id="Yoga" transform="translate(-58 -115)">
          <circle id="Background" cx="27.364" cy="27.364" r="27.364" transform="translate(-164 192)" fill="#fff"/>
        </g>
      </g>
    </g>
    <g id="respiratory-system" transform="translate(-465.097 -236.714)">
      <g id="Group_2948" data-name="Group 2948" transform="translate(6 10.76)">
        <g id="Group_2947" data-name="Group 2947" transform="translate(0 0)">
          <path id="Path_8121" data-name="Path 8121" d="M6.25,32.849H27.969a.25.25,0,1,0,0-.5H26.177a1.793,1.793,0,0,0,.675-1.195l.475-3.782c.044-.446.066-.914.066-1.39a14.587,14.587,0,0,0-6.038-11.8,1.388,1.388,0,0,0-2.183.914l-.292,1.913a3.374,3.374,0,0,1-.492-1.753v-3.9a.6.6,0,0,0-.6-.6h-.719a.6.6,0,0,0-.6.6v3.9a3.38,3.38,0,0,1-.421,1.627L15.782,15.1a1.385,1.385,0,0,0-2.181-.914,14.6,14.6,0,0,0-6.04,11.8c0,.45.022.916.067,1.392L8.1,31.155a1.792,1.792,0,0,0,.676,1.195H6.25a.25.25,0,0,0,0,.5ZM19.666,15.175a.889.889,0,0,1,1.4-.585,14.087,14.087,0,0,1,5.831,11.394c0,.466-.021.905-.063,1.335l-.474,3.775A1.31,1.31,0,0,1,24.3,32l-4.279-3a4.373,4.373,0,0,1-1.819-4.264l.949-6.212a11.019,11.019,0,0,1,2.1,1.776.246.246,0,0,0,.067.1c.044.037.964.868.449,3.024a5.683,5.683,0,0,0-1.547,1l-.89-.054a.256.256,0,0,0-.264.234.25.25,0,0,0,.234.264l.515.031a1.78,1.78,0,0,0-.285.695.25.25,0,0,0,.206.287.256.256,0,0,0,.04,0,.25.25,0,0,0,.246-.209c.118-.727.99-1.3,1.559-1.6-.009.026-.015.049-.024.075-.1.312-.386,1.287-.574,2.26l-.906,1.047a.25.25,0,1,0,.377.327l.387-.447a2.3,2.3,0,0,0,.1,1.226.25.25,0,0,0,.433-.25c-.261-.452.227-2.62.655-4.007a5.8,5.8,0,0,0,.362-2.62,15.5,15.5,0,0,1,1.034,1.632l-1.266,3.6a.25.25,0,1,0,.471.167l1.112-3.168a17.907,17.907,0,0,1,1.154,2.965,3.211,3.211,0,0,0-.511,3.183.25.25,0,0,0,.447-.223,2.5,2.5,0,0,1,.243-2.309,21.76,21.76,0,0,1,.522,2.788.25.25,0,0,0,.5-.06,21.885,21.885,0,0,0-.663-3.329.243.243,0,0,0-.048-.164q-.2-.67-.422-1.281c.34.116.711.3.8.526a.25.25,0,0,0,.462-.189c-.237-.579-1.14-.839-1.493-.92-.24-.586-.927-1.928-.93-1.929A15.746,15.746,0,0,0,22.347,20.8a1.724,1.724,0,0,1,1.141.645,3.44,3.44,0,0,0,.375.37,2.406,2.406,0,0,0,1.278.606h.011a.25.25,0,0,0,.011-.5,1.893,1.893,0,0,1-.983-.493,3,3,0,0,1-.321-.318,2.418,2.418,0,0,0-1.094-.736,1.385,1.385,0,0,1,1.07-.415.25.25,0,0,0,0-.5A1.779,1.779,0,0,0,22.2,20.3a1.556,1.556,0,0,0-.25.029,13.33,13.33,0,0,0-1.57-1.525l.219-.31c.343-.022,1.233.017,1.387.444a.25.25,0,0,0,.47-.169c-.222-.615-1-.752-1.5-.775l1.114-1.577a.25.25,0,1,0-.408-.288l-.693.98a1.71,1.71,0,0,1,.154-1.241A.25.25,0,1,0,20.7,15.6a2.2,2.2,0,0,0-.076,2l-.633.9a8.013,8.013,0,0,0-.752-.5Zm-2.691.084v-3.9a.1.1,0,0,1,.1-.1h.719a.1.1,0,0,1,.1.1v3.9a3.873,3.873,0,0,0,.882,2.461l-.1.66a1.712,1.712,0,0,0-2.365.139l-.031-.2-.107-.7A3.886,3.886,0,0,0,16.975,15.259ZM8.124,27.326c-.042-.453-.064-.9-.064-1.337a14.094,14.094,0,0,1,5.833-11.4.883.883,0,0,1,.518-.168.893.893,0,0,1,.345.07.878.878,0,0,1,.532.683l.37,2.416s0,0,0,0l.067.437a8,8,0,0,0-.758.508l-.633-.9a2.2,2.2,0,0,0-.076-2,.25.25,0,0,0-.426.261,1.711,1.711,0,0,1,.154,1.243l-.693-.98a.25.25,0,1,0-.408.288L14,18.036c-.5.023-1.282.16-1.5.775a.25.25,0,0,0,.47.169c.153-.427,1.043-.466,1.386-.444l.219.311A13.335,13.335,0,0,0,13,20.371a1.55,1.55,0,0,0-.25-.029,1.78,1.78,0,0,0-1.632-.841.25.25,0,1,0,0,.5,1.385,1.385,0,0,1,1.069.415,2.42,2.42,0,0,0-1.094.737,3,3,0,0,1-.321.318,1.893,1.893,0,0,1-.983.493.25.25,0,0,0,.011.5h.011a2.406,2.406,0,0,0,1.278-.606,3.439,3.439,0,0,0,.375-.37,1.726,1.726,0,0,1,1.141-.645,15.743,15.743,0,0,0-1.466,2.173s-.69,1.342-.929,1.929c-.353.081-1.255.342-1.493.92a.25.25,0,0,0,.462.189c.092-.224.453-.407.8-.526q-.226.611-.422,1.281a.242.242,0,0,0-.048.164A21.888,21.888,0,0,0,8.853,30.3a.25.25,0,0,0,.5.06,21.69,21.69,0,0,1,.523-2.789,2.491,2.491,0,0,1,.242,2.31.25.25,0,0,0,.447.223,3.21,3.21,0,0,0-.511-3.182A17.9,17.9,0,0,1,11.2,23.962l1.273,3.556a.25.25,0,0,0,.471-.167L11.52,23.36a15.548,15.548,0,0,1,1.031-1.626,5.79,5.79,0,0,0,.361,2.6c.43,1.395.918,3.563.657,4.015A.25.25,0,1,0,14,28.6a2.3,2.3,0,0,0,.1-1.225l.386.447a.25.25,0,0,0,.378-.327l-.906-1.048c-.189-.974-.479-1.951-.577-2.267-.008-.024-.014-.046-.022-.07.619.332,1.448.919,1.56,1.606a.25.25,0,0,0,.493-.08,1.78,1.78,0,0,0-.285-.7l.515-.031a.25.25,0,0,0,.234-.264.255.255,0,0,0-.264-.234l-.89.054a5.686,5.686,0,0,0-1.548-1c-.516-2.149.4-2.983.449-3.023a.244.244,0,0,0,.067-.094,11.075,11.075,0,0,1,2.112-1.785l.944,6.17A4.374,4.374,0,0,1,14.929,29l-4.279,3A1.311,1.311,0,0,1,8.6,31.093Zm7.092,2.08h0a4.871,4.871,0,0,0,2.028-4.748l-.832-5.438.143-.214a1.209,1.209,0,0,1,1.954-.075l.065.082-.862,5.645a4.87,4.87,0,0,0,2.026,4.748l4.195,2.944H11.022Z" transform="translate(-6 -10.76)" fill="#a89e24"/>
          <path id="Path_8122" data-name="Path 8122" d="M98.887,97.24H97.768a.25.25,0,0,0,0,.5h1.119a.25.25,0,0,0,0-.5Z" transform="translate(-74.67 -75.65)" fill="#a89e24"/>
        </g>
      </g>
    </g>
  </g>
</svg>
