<svg xmlns="http://www.w3.org/2000/svg" width="54.727" height="54.727" viewBox="0 0 54.727 54.727">
  <g id="Group_2946" data-name="Group 2946" transform="translate(218.727 149)">
    <g id="Group_2915" data-name="Group 2915" transform="translate(90.273 -226)">
      <g id="Group_2906" data-name="Group 2906" transform="translate(-87)">
        <g id="Yoga" transform="translate(-58 -115)">
          <circle id="Background" cx="27.364" cy="27.364" r="27.364" transform="translate(-164 192)" fill="#fff"/>
        </g>
      </g>
    </g>
    <g id="beauty-treatment" transform="translate(-217.825 -149.175)">
      <path id="Path_8116" data-name="Path 8116" d="M35.655,18.906A12.41,12.41,0,0,0,27.526,16,12.41,12.41,0,0,0,19.4,18.906,9.307,9.307,0,0,0,16,25.989a9.484,9.484,0,0,0,4.076,7.622q.212.441.466.867l-.872.436a.384.384,0,0,0,0,.687l1.079.539a1.16,1.16,0,0,1,.516.515l.539,1.079a.384.384,0,0,0,.687,0l.294-.587a7.426,7.426,0,0,0,4.742,1.9H32.9a.384.384,0,0,0,.3-.144L36.584,34.7a1.908,1.908,0,0,0,.547-1.343V31.514a9.021,9.021,0,0,0,1.921-5.524A9.307,9.307,0,0,0,35.655,18.906ZM16.768,25.989c0-5.084,4.826-9.221,10.758-9.221a12.3,12.3,0,0,1,3.826.6A7.142,7.142,0,0,1,29.91,20.25c-.867,1.135-1.826,1.9-2.384,1.9a9.493,9.493,0,0,0-5.946,1.871,6.708,6.708,0,0,0-2.507,5.428,9.161,9.161,0,0,0,.416,2.67A8.5,8.5,0,0,1,16.768,25.989ZM34.53,27.966a1.583,1.583,0,0,0-.473,1.123v3.684l-.68.874a1.537,1.537,0,0,0-2.506-.5.379.379,0,0,0-.045.054l-3.5,5.077a6.813,6.813,0,0,1-4.168-1.823,1.159,1.159,0,0,1,.387-.315l1.079-.539a.384.384,0,0,0,0-.687l-1.079-.539a1.16,1.16,0,0,1-.516-.515l-.539-1.079a.384.384,0,0,0-.687,0l-.539,1.079a1.14,1.14,0,0,1-.1.163,9.184,9.184,0,0,1-1.323-4.575,5.964,5.964,0,0,1,2.219-4.829,8.729,8.729,0,0,1,5.465-1.7,9.019,9.019,0,0,1,4.938,1.322,5.849,5.849,0,0,1,2.518,3.419,1.546,1.546,0,0,0-.452.309ZM22.147,36.7l-.2-.391a1.933,1.933,0,0,0-.859-.859l-.391-.2.391-.2a1.933,1.933,0,0,0,.859-.859l.2-.391.2.391a1.933,1.933,0,0,0,.859.859l.391.2-.391.2a1.933,1.933,0,0,0-.859.859Zm14.215-3.349a1.145,1.145,0,0,1-.338.815A.376.376,0,0,0,36,34.2l-3.277,4.082H28.257l3.18-4.613A.768.768,0,1,1,32.5,34.779a.387.387,0,0,0-.039.046l-1.021,1.4a.384.384,0,1,0,.622.451l1-1.382a1.532,1.532,0,0,0,.2-.258l1.479-1.9h0a.382.382,0,0,0,.081-.235V29.089a.811.811,0,0,1,.243-.575.75.75,0,0,1,.541-.22.772.772,0,0,1,.753.768Zm-.618-5.821a6.6,6.6,0,0,0-2.861-3.941,9.146,9.146,0,0,0-3.824-1.348,8.966,8.966,0,0,0,1.461-1.528,7.911,7.911,0,0,0,1.563-3.078c3.66,1.473,6.2,4.662,6.2,8.351a8.131,8.131,0,0,1-1.153,4.155V29.063A1.545,1.545,0,0,0,35.745,27.534Z" fill="#ffa90c"/>
      <path id="Path_8117" data-name="Path 8117" d="M161.921,265.537a.384.384,0,0,0,.384-.384,1.153,1.153,0,1,0-2.305,0,.384.384,0,0,0,.768,0,.384.384,0,1,1,.768,0A.384.384,0,0,0,161.921,265.537Z" transform="translate(-137.084 -236.09)" fill="#ffa90c"/>
      <path id="Path_8118" data-name="Path 8118" d="M305.153,264A1.154,1.154,0,0,0,304,265.153a.384.384,0,1,0,.768,0,.384.384,0,0,1,.768,0,.384.384,0,1,0,.768,0A1.154,1.154,0,0,0,305.153,264Z" transform="translate(-274.169 -236.09)" fill="#ffa90c"/>
      <path id="Path_8119" data-name="Path 8119" d="M197.908,344.013a.384.384,0,0,0-.506.2,2.744,2.744,0,0,1-4.676,0,.384.384,0,1,0-.7.31,3.5,3.5,0,0,0,6.083,0A.384.384,0,0,0,197.908,344.013Z" transform="translate(-167.538 -312.229)" fill="#ffa90c"/>
      <path id="Path_8120" data-name="Path 8120" d="M232.384,282.305h1.537a.384.384,0,1,0,0-.768h-1.153v-1.153a.384.384,0,1,0-.768,0v1.537A.384.384,0,0,0,232.384,282.305Z" transform="translate(-205.627 -251.321)" fill="#ffa90c"/>
    </g>
  </g>
</svg>
