<svg xmlns="http://www.w3.org/2000/svg" width="54.727" height="54.727" viewBox="0 0 54.727 54.727">
  <g id="Group_2942" data-name="Group 2942" transform="translate(474 51)">
    <g id="Group_2908" data-name="Group 2908" transform="translate(-165 -128)">
      <g id="Group_2906" data-name="Group 2906" transform="translate(-87)">
        <g id="Yoga" transform="translate(-58 -115)">
          <circle id="Background" cx="27.364" cy="27.364" r="27.364" transform="translate(-164 192)" fill="#fff"/>
        </g>
      </g>
    </g>
    <g id="weight" transform="translate(-477.599 -48.796)">
      <path id="Path_8081" data-name="Path 8081" d="M56.767,24.684a3.484,3.484,0,1,0-3.484,3.484A3.481,3.481,0,0,0,56.767,24.684Zm-3.484,2.625a2.625,2.625,0,1,1,2.625-2.625A2.628,2.628,0,0,1,53.284,27.309Z" transform="translate(-22.689 -6.037)" fill="#f34141"/>
      <path id="Path_8082" data-name="Path 8082" d="M41.39,33.415l-2.012-9.666A3.076,3.076,0,0,0,36.36,21.3H35.33a5.033,5.033,0,0,0,.687-2.65,5.446,5.446,0,0,0-10.893,0,5.536,5.536,0,0,0,.687,2.65h-1.03a3.1,3.1,0,0,0-3.018,2.453L19.8,33.415a3.06,3.06,0,0,0,2.38,3.631,2.674,2.674,0,0,0,.638.074H38.372a3.094,3.094,0,0,0,3.091-3.091,2.782,2.782,0,0,0-.074-.613Zm-1.3,2.036a2.213,2.213,0,0,1-1.717.81H22.818a2.241,2.241,0,0,1-2.232-2.232,2.7,2.7,0,0,1,.049-.442l2.012-9.641a2.232,2.232,0,0,1,2.183-1.766h1.84a.42.42,0,0,0,.417-.442.369.369,0,0,0-.1-.27,4.533,4.533,0,0,1-.981-2.821,4.588,4.588,0,1,1,9.175,0,4.533,4.533,0,0,1-.981,2.821.432.432,0,0,0,.074.613.514.514,0,0,0,.27.1h1.84a2.232,2.232,0,0,1,2.183,1.766l2.012,9.666A2.2,2.2,0,0,1,40.089,35.451Z" fill="#f34141"/>
      <g id="Group_2918" data-name="Group 2918" transform="translate(25.639 26.546)">
        <path id="Path_8083" data-name="Path 8083" d="M48.118,68.336a.454.454,0,0,0-.025-.613.43.43,0,0,0-.613.025l-1.815,2.036a.4.4,0,0,1-.319.147h-.662V68.042a.442.442,0,1,0-.883,0v4.637a.442.442,0,1,0,.883,0V70.789h.662a.4.4,0,0,1,.319.147l1.815,2.036a.4.4,0,0,0,.319.147.471.471,0,0,0,.294-.1.429.429,0,0,0,.025-.613L46.3,70.372Z" transform="translate(-43.8 -67.6)" fill="#f34141"/>
        <path id="Path_8084" data-name="Path 8084" d="M69.24,69.955h-.81a.442.442,0,0,0,0,.883h.81a.44.44,0,0,1,.442.442v.589a.44.44,0,0,1-.442.442H67.4a.44.44,0,0,1-.442-.442V68.925a.44.44,0,0,1,.442-.442h2.7a.442.442,0,0,0,0-.883H67.4a1.309,1.309,0,0,0-1.3,1.3V71.82a1.309,1.309,0,0,0,1.3,1.3h1.84a1.309,1.309,0,0,0,1.3-1.3v-.589A1.288,1.288,0,0,0,69.24,69.955Z" transform="translate(-60.629 -67.6)" fill="#f34141"/>
      </g>
    </g>
  </g>
</svg>
