<svg xmlns="http://www.w3.org/2000/svg" width="54.727" height="54.727" viewBox="0 0 54.727 54.727"><g transform="translate(309 -77)"><g transform="translate(-87)"><g transform="translate(-58 -115)"><circle cx="27.364" cy="27.364" r="27.364" transform="translate(-164 192)" fill="#fff"/></g></g><g transform="translate(-295.865 91.364)"><g transform="translate(1.501 0)"><path d="M22.649,345.985a1.847,1.847,0,0,0-2.45-.611l-4.24,2.1a1.869,1.869,0,0,0-1.283-1.359l-1.964-.583a6.274,6.274,0,0,0-5.136.3c-.115.067-.218.133-.31.192a1.8,1.8,0,0,1-1.189.37,1.333,1.333,0,0,0-1.234-.833H2.832A1.333,1.333,0,0,0,1.5,346.9v4.675a1.333,1.333,0,0,0,1.331,1.332H4.844a1.333,1.333,0,0,0,1.328-1.246,7.952,7.952,0,0,1,2.509.408c.568.167,3.282.958,3.486,1.018a6.545,6.545,0,0,0,1.81.356,3.973,3.973,0,0,0,2.259-.814l.013-.009,5.838-4.162a1.839,1.839,0,0,0,.562-2.473Zm-17.47,5.591a.339.339,0,0,1-.334.335H2.832a.339.339,0,0,1-.334-.335V346.9a.339.339,0,0,1,.334-.335H4.844a.339.339,0,0,1,.334.335v4.675Zm16.33-3.93L15.677,351.8c-1.321.88-1.881.718-3.231.326-.207-.06-2.914-.849-3.482-1.016a8.823,8.823,0,0,0-2.788-.448V347.4a2.747,2.747,0,0,0,1.631-.528c.086-.055.175-.113.268-.167a5.167,5.167,0,0,1,4.354-.213l1.964.583a.867.867,0,0,1,.587,1.068v0a.864.864,0,0,1-1.067.583l-2.808-.816a.5.5,0,1,0-.278.957l2.809.817a1.864,1.864,0,0,0,2.223-1.043l4.785-2.374a.875.875,0,0,1,1.159.242.854.854,0,0,1-.293,1.138Z" transform="translate(-1.501 -327.443)" fill="#e3882b"/><g transform="translate(2.162 0)"><path d="M67.589,5.783H65.508a5.79,5.79,0,0,0-1.587-4.411A4.524,4.524,0,0,0,60.427,0a5.456,5.456,0,0,0-3.493,1.488l-.068.064c-.143.134-.29.271-.38.341-.09-.069-.237-.207-.38-.341l-.068-.064A5.456,5.456,0,0,0,52.545,0,4.525,4.525,0,0,0,49.05,1.372a5.79,5.79,0,0,0-1.586,4.411H45.383a.5.5,0,0,0,0,1h2.234A5.7,5.7,0,0,0,49.05,9.4l.013.013.576.555a.5.5,0,0,0,.692-.717L49.762,8.7a4.7,4.7,0,0,1-1.115-1.922h1.526L51.4,8.427a.5.5,0,0,0,.809-.013l.808-1.161.844,1.684a.5.5,0,0,0,.438.275h.008a.5.5,0,0,0,.438-.261l1.742-3.218,1.742,3.218a.5.5,0,0,0,.884-.014l.844-1.684.808,1.161a.5.5,0,0,0,.809.013L62.8,6.779h1.527A4.7,4.7,0,0,1,63.21,8.7l-6.724,6.5-2.939-2.839a.5.5,0,1,0-.692.717l3.285,3.174a.5.5,0,0,0,.692,0l7.077-6.836.013-.013a5.7,5.7,0,0,0,1.433-2.62h2.234a.5.5,0,0,0,0-1Zm-5.042,0a.5.5,0,0,0-.4.2l-.961,1.293L60.294,6a.5.5,0,0,0-.854.061l-.791,1.579L56.924,4.45a.5.5,0,0,0-.876,0L54.323,7.636l-.791-1.579A.5.5,0,0,0,52.678,6l-.891,1.281-.963-1.294a.5.5,0,0,0-.4-.2H48.461a4.794,4.794,0,0,1,1.307-3.719,4.014,4.014,0,0,1,5.589.156l.068.063c.427.4.684.641,1.062.641s.635-.241,1.062-.641l.068-.063A4.014,4.014,0,0,1,63.2,2.063a4.8,4.8,0,0,1,1.307,3.72Z" transform="translate(-44.885 0)" fill="#e3882b"/><path d="M170.2,214.064a.5.5,0,0,0-.446.891h0a.5.5,0,0,0,.667-.224A.5.5,0,0,0,170.2,214.064Z" transform="translate(-163.273 -203.347)" fill="#e3882b"/></g></g></g></g></svg>