<svg xmlns="http://www.w3.org/2000/svg" width="54.727" height="54.727" viewBox="0 0 54.727 54.727">
  <g id="Yoga" transform="translate(164 -192)">
    <circle id="Background" cx="27.364" cy="27.364" r="27.364" transform="translate(-164 192)" fill="#fff"/>
    <g id="yoga_1_" data-name="yoga (1)" transform="translate(-167.692 206)">
      <g id="Group_2898" data-name="Group 2898" transform="translate(17.692 10.168)">
        <g id="Group_2897" data-name="Group 2897">
          <path id="Path_8073" data-name="Path 8073" d="M43.148,213.063a1.905,1.905,0,0,0-1.313-.511h-.044a1.446,1.446,0,0,0-1.151.557l-2.764-2.6-.562-3.968a3.7,3.7,0,0,0-3.727-3.068.91.91,0,0,0-.935.88v.908a1.964,1.964,0,0,1-3.921,0v-.908a.91.91,0,0,0-.936-.88,3.7,3.7,0,0,0-3.725,3.068l-.562,3.968-2.763,2.6a1.378,1.378,0,0,0-.15-.165,1.454,1.454,0,0,0-1-.39h0a1.789,1.789,0,1,0-.056,3.574,1.923,1.923,0,0,0-.4,1.165,2.083,2.083,0,0,0,2.142,2.014H40.1a2.083,2.083,0,0,0,2.142-2.014,1.923,1.923,0,0,0-.4-1.165,1.847,1.847,0,0,0,1.844-1.793V214.3A1.684,1.684,0,0,0,43.148,213.063Zm-8.546-1.6.156-1.247.144.679a3.087,3.087,0,0,0,.916,1.609l2.951,2.776h-3.38l-.708-2.664A3.009,3.009,0,0,1,34.6,211.459ZM27.8,204.324a.029.029,0,0,1,.03.028v.908a2.871,2.871,0,0,0,5.731,0v-.908a.03.03,0,0,1,.031-.028,2.988,2.988,0,0,1,.974.163l-.86,6.873a3.807,3.807,0,0,0,.1,1.458l.653,2.458H26.928l.653-2.458a3.81,3.81,0,0,0,.1-1.458l-.86-6.873A2.991,2.991,0,0,1,27.8,204.324Zm-1.17,5.888.156,1.247a3.01,3.01,0,0,1-.078,1.152L26,215.276h-3.38l2.951-2.776a3.087,3.087,0,0,0,.916-1.609Zm-7.034,5.064a.938.938,0,1,1,0-1.873.526.526,0,0,1,.362.141.465.465,0,0,1,.15.341.426.426,0,0,0,.279.393.473.473,0,0,0,.493-.092l3.378-3.178a.416.416,0,0,0,.129-.245l.583-4.111a2.642,2.642,0,0,1,1-1.7l.316,2.528-.69,3.244a2.252,2.252,0,0,1-.668,1.174l-3.591,3.378H19.592Zm9.2,3.178h-7.51a1.165,1.165,0,1,1,0-2.327h3.167v.208a1.346,1.346,0,0,0,1.11,1.3l3.233.676v.141Zm0-1.013-3.037-.635a.487.487,0,0,1-.4-.471v-.208h3.438ZM40.1,218.454H29.7v-2.327H40.1a1.165,1.165,0,1,1,0,2.327Zm2.684-4.121a.971.971,0,0,1-.994.943H40.049L36.458,211.9a2.253,2.253,0,0,1-.668-1.174l-.69-3.245.316-2.528a2.643,2.643,0,0,1,1,1.7L37,210.764a.417.417,0,0,0,.129.245l3.378,3.178a.474.474,0,0,0,.493.092.426.426,0,0,0,.279-.393.5.5,0,0,1,.513-.482h.043a.977.977,0,0,1,.673.262.864.864,0,0,1,.279.633v.034Z" transform="translate(-17.692 -203.473)" fill="#da9698" stroke="#da9698" stroke-width="0.5"/>
        </g>
      </g>
      <g id="Group_2900" data-name="Group 2900" transform="translate(26.635)">
        <g id="Group_2899" data-name="Group 2899">
          <path id="Path_8074" data-name="Path 8074" d="M182.727,2.208a1.788,1.788,0,1,0-3.475,0,4.062,4.062,0,0,0-2.32,3.666V6.29a.426.426,0,0,0,.423.426c.028,0,.2,0,.485-.018v.538a3.149,3.149,0,0,0,6.3,0v-.53a2.5,2.5,0,0,0,.482.048.426.426,0,0,0,.426-.426V5.873A4.062,4.062,0,0,0,182.727,2.208ZM180.989.851a.931.931,0,0,1,.925,1.072,4.028,4.028,0,0,0-1.851,0,.949.949,0,0,1-.011-.136A.937.937,0,0,1,180.989.851Zm2.3,6.384a2.3,2.3,0,1,1-4.6,0V6.611a10.858,10.858,0,0,0,3.55-1.1,4.067,4.067,0,0,0,1.046.87v.85ZM182.7,4.728a.426.426,0,0,0-.57-.129,10.35,10.35,0,0,1-4.351,1.248,3.206,3.206,0,0,1,6.412,0A3.027,3.027,0,0,1,182.7,4.728Z" transform="translate(-176.932)" fill="#da9698" stroke="#da9698" stroke-width="0.5"/>
        </g>
      </g>
    </g>
  </g>
</svg>
